Rokkitt-1000-FF.ufo
<glyph name="numbersign" format="1">
  <advance width="1338"/>
  <unicode hex="0023"/>
  <outline>
    <contour>
      <point x="218" y="0" type="line"/>
      <point x="441" y="0" type="line"/>
      <point x="506.023" y="287" type="line"/>
      <point x="698.525" y="287" type="line"/>
      <point x="634" y="0" type="line"/>
      <point x="857" y="0" type="line"/>
      <point x="922.023" y="287" type="line"/>
      <point x="1156" y="287" type="line"/>
      <point x="1189" y="461" type="line"/>
      <point x="961.445" y="461" type="line"/>
      <point x="1019.45" y="717" type="line"/>
      <point x="1256" y="717" type="line"/>
      <point x="1289" y="891" type="line"/>
      <point x="1058.87" y="891" type="line"/>
      <point x="1118" y="1152" type="line"/>
      <point x="893" y="1152" type="line"/>
      <point x="834.32" y="891" type="line"/>
      <point x="642.867" y="891" type="line"/>
      <point x="702" y="1152" type="line"/>
      <point x="477" y="1152" type="line"/>
      <point x="418.32" y="891" type="line"/>
      <point x="201" y="891" type="line"/>
      <point x="168" y="717" type="line"/>
      <point x="379.2" y="717" type="line"/>
      <point x="321.645" y="461" type="line"/>
      <point x="101" y="461" type="line"/>
      <point x="68" y="287" type="line"/>
      <point x="282.525" y="287" type="line"/>
    </contour>
    <contour>
      <point x="545.445" y="461" type="line"/>
      <point x="603.445" y="717" type="line"/>
      <point x="795.2" y="717" type="line"/>
      <point x="737.645" y="461" type="line"/>
    </contour>
  </outline>
</glyph>
<glyph name="ampersand" format="1">
  <advance width="1600"/>
  <unicode hex="0026"/>
  <outline>
    <contour>
      <point x="573" y="-22" type="curve" smooth="yes"/>
      <point x="732" y="-22"/>
      <point x="852" y="25"/>
      <point x="947" y="108" type="curve"/>
      <point x="1034" y="0" type="line"/>
      <point x="1440" y="0" type="line"/>
      <point x="1440" y="201" type="line"/>
      <point x="1248" y="201" type="line"/>
      <point x="1152" y="297" type="line"/>
      <point x="1215" y="379"/>
      <point x="1259" y="457"/>
      <point x="1293" y="547" type="curve"/>
      <point x="1437" y="551" type="line"/>
      <point x="1437" y="743" type="line"/>
      <point x="1092" y="743" type="line"/>
      <point x="1069" y="665"/>
      <point x="1042" y="553"/>
      <point x="984" y="478" type="curve"/>
      <point x="821" y="644" type="line"/>
      <point x="997" y="730"/>
      <point x="1046" y="817"/>
      <point x="1046" y="924" type="curve" smooth="yes"/>
      <point x="1046" y="1042"/>
      <point x="930" y="1174"/>
      <point x="708" y="1174" type="curve" smooth="yes"/>
      <point x="465" y="1174"/>
      <point x="336" y="1047"/>
      <point x="336" y="914" type="curve" smooth="yes"/>
      <point x="336" y="800"/>
      <point x="371" y="740"/>
      <point x="418" y="680" type="curve"/>
      <point x="252" y="604"/>
      <point x="120" y="510"/>
      <point x="120" y="354" type="curve" smooth="yes"/>
      <point x="120" y="167"/>
      <point x="274" y="-22"/>
    </contour>
    <contour>
      <point x="617" y="197" type="curve" smooth="yes"/>
      <point x="500" y="197"/>
      <point x="450" y="315"/>
      <point x="450" y="365" type="curve" smooth="yes"/>
      <point x="450" y="435"/>
      <point x="490" y="484"/>
      <point x="557" y="525" type="curve"/>
      <point x="792" y="275" type="line"/>
      <point x="738" y="214"/>
      <point x="687" y="197"/>
    </contour>
    <contour>
      <point x="688" y="806" type="curve"/>
      <point x="659" y="842"/>
      <point x="635" y="880"/>
      <point x="635" y="935" type="curve" smooth="yes"/>
      <point x="635" y="979"/>
      <point x="653" y="1004"/>
      <point x="709" y="1004" type="curve" smooth="yes"/>
      <point x="748" y="1004"/>
      <point x="778" y="979"/>
      <point x="778" y="926" type="curve" smooth="yes"/>
      <point x="778" y="873"/>
      <point x="765" y="841"/>
    </contour>
  </outline>
</glyph>
<glyph name="quotesingle" format="1">
  <advance width="653"/>
  <unicode hex="0027"/>
  <outline>
    <contour>
      <point x="232" y="601" type="line"/>
      <point x="388" y="601" type="line"/>
      <point x="441" y="1174" type="line"/>
      <point x="172" y="1174" type="line"/>
    </contour>
  </outline>
</glyph>
<glyph name="hyphen" format="1">
  <advance width="684"/>
  <unicode hex="002D"/>
  <outline>
    <contour>
      <point x="50" y="408" type="line"/>
      <point x="634" y="408" type="line"/>
      <point x="634" y="608" type="line"/>
      <point x="50" y="608" type="line"/>
    </contour>
    <contour>
      <point x="350" y="503" type="move" name="_mid"/>
    </contour>
  </outline>
</glyph>
<glyph name="one" format="1">
  <advance width="1192"/>
  <unicode hex="0031"/>
  <outline>
    <contour>
      <point x="232" y="0" type="line"/>
      <point x="1022" y="0" type="line"/>
      <point x="1022" y="211" type="line"/>
      <point x="815" y="211" type="line"/>
      <point x="815" y="1149" type="line"/>
      <point x="232" y="1089" type="line"/>
      <point x="232" y="882" type="line"/>
      <point x="450" y="922" type="line"/>
      <point x="450" y="211" type="line"/>
      <point x="232" y="211" type="line"/>
    </contour>
  </outline>
</glyph>
<glyph name="five" format="1">
  <advance width="1192"/>
  <unicode hex="0035"/>
  <outline>
    <contour>
      <point x="587" y="-23" type="curve" smooth="yes"/>
      <point x="875" y="-23"/>
      <point x="1079" y="139"/>
      <point x="1079" y="369" type="curve" smooth="yes"/>
      <point x="1079" y="609"/>
      <point x="934" y="779"/>
      <point x="729" y="779" type="curve" smooth="yes"/>
      <point x="607" y="779"/>
      <point x="488" y="738"/>
      <point x="452" y="681" type="curve"/>
      <point x="476" y="945" type="line"/>
      <point x="821" y="945" type="line"/>
      <point x="821" y="857" type="line"/>
      <point x="1027" y="857" type="line"/>
      <point x="1027" y="1152" type="line"/>
      <point x="215" y="1152" type="line"/>
      <point x="178" y="555" type="line"/>
      <point x="430" y="457" type="line"/>
      <point x="473" y="514"/>
      <point x="553" y="555"/>
      <point x="613" y="555" type="curve" smooth="yes"/>
      <point x="698" y="555"/>
      <point x="758" y="492"/>
      <point x="758" y="402" type="curve" smooth="yes"/>
      <point x="758" y="301"/>
      <point x="674" y="230"/>
      <point x="556" y="230" type="curve" smooth="yes"/>
      <point x="466" y="230"/>
      <point x="337" y="280"/>
      <point x="256" y="350" type="curve"/>
      <point x="131" y="141" type="line"/>
      <point x="228" y="45"/>
      <point x="421" y="-23"/>
    </contour>
  </outline>
</glyph>
<glyph name="six" format="1">
  <advance width="1192"/>
  <unicode hex="0036"/>
  <outline>
    <contour>
      <point x="586" y="-22" type="curve" smooth="yes"/>
      <point x="867.457" y="-22"/>
      <point x="1077" y="100.971"/>
      <point x="1077" y="421" type="curve" smooth="yes"/>
      <point x="1077" y="630.95"/>
      <point x="924.632" y="813"/>
      <point x="654" y="813" type="curve" smooth="yes"/>
      <point x="570" y="813"/>
      <point x="436" y="763"/>
      <point x="423.177" y="681" type="curve"/>
      <point x="888.177" y="1123" type="line"/>
      <point x="681.435" y="1308.42" type="line"/>
      <point x="350.972" y="975" type="line" smooth="yes"/>
      <point x="146.251" y="768.299"/>
      <point x="124" y="606.475"/>
      <point x="124" y="440" type="curve" smooth="yes"/>
      <point x="124" y="188.201"/>
      <point x="269.752" y="-22"/>
    </contour>
    <contour>
      <point x="596" y="201" type="curve" smooth="yes"/>
      <point x="494.184" y="201"/>
      <point x="438" y="280.26"/>
      <point x="438" y="427" type="curve" smooth="yes"/>
      <point x="438" y="536.747"/>
      <point x="494.171" y="620"/>
      <point x="596" y="620" type="curve" smooth="yes"/>
      <point x="696.838" y="620"/>
      <point x="751" y="536.751"/>
      <point x="751" y="427" type="curve" smooth="yes"/>
      <point x="751" y="280.255"/>
      <point x="696.826" y="201"/>
    </contour>
  </outline>
</glyph>
<glyph name="eight" format="1">
  <advance width="1200"/>
  <unicode hex="0038"/>
  <outline>
    <contour>
      <point x="608" y="-22" type="curve" smooth="yes"/>
      <point x="905" y="-22"/>
      <point x="1115" y="114"/>
      <point x="1115" y="306" type="curve" smooth="yes"/>
      <point x="1115" y="449"/>
      <point x="1016" y="575"/>
      <point x="876" y="610" type="curve"/>
      <point x="987" y="639"/>
      <point x="1065" y="744"/>
      <point x="1065" y="863" type="curve" smooth="yes"/>
      <point x="1065" y="1047"/>
      <point x="873" y="1176"/>
      <point x="600" y="1174" type="curve" smooth="yes"/>
      <point x="325" y="1172"/>
      <point x="132" y="1043"/>
      <point x="132" y="863" type="curve" smooth="yes"/>
      <point x="132" y="736"/>
      <point x="213" y="628"/>
      <point x="328" y="602" type="curve"/>
      <point x="186" y="576"/>
      <point x="85" y="453"/>
      <point x="85" y="306" type="curve" smooth="yes"/>
      <point x="85" y="114"/>
      <point x="301" y="-22"/>
    </contour>
    <contour>
      <point x="607" y="142" type="curve" smooth="yes"/>
      <point x="515" y="142"/>
      <point x="451" y="210"/>
      <point x="451" y="306" type="curve" smooth="yes"/>
      <point x="451" y="451"/>
      <point x="495" y="543"/>
      <point x="558" y="529" type="curve" smooth="yes"/>
      <point x="672" y="503"/>
      <point x="753" y="411"/>
      <point x="753" y="306" type="curve" smooth="yes"/>
      <point x="753" y="210"/>
      <point x="692" y="142"/>
    </contour>
    <contour>
      <point x="634" y="685" type="curve" smooth="yes"/>
      <point x="543" y="715"/>
      <point x="478" y="789"/>
      <point x="478" y="863" type="curve" smooth="yes"/>
      <point x="478" y="951"/>
      <point x="529" y="1014"/>
      <point x="600" y="1014" type="curve" smooth="yes"/>
      <point x="675" y="1014"/>
      <point x="727" y="951"/>
      <point x="727" y="863" type="curve" smooth="yes"/>
      <point x="727" y="741"/>
      <point x="689" y="667"/>
    </contour>
  </outline>
</glyph>
<glyph name="colon" format="1">
  <advance width="969"/>
  <unicode hex="003A"/>
  <outline>
    <contour>
      <point x="315" y="0" type="line"/>
      <point x="644" y="0" type="line"/>
      <point x="644" y="333" type="line"/>
      <point x="315" y="333" type="line"/>
    </contour>
    <contour>
      <point x="315" y="655" type="line"/>
      <point x="644" y="655" type="line"/>
      <point x="644" y="995" type="line"/>
      <point x="315" y="995" type="line"/>
    </contour>
  </outline>
</glyph>
<glyph name="B" format="1">
  <advance width="1435"/>
  <unicode hex="0042"/>
  <outline>
    <contour>
      <point x="44" y="0" type="line"/>
      <point x="788" y="0" type="line" smooth="yes"/>
      <point x="1238" y="0"/>
      <point x="1355" y="165"/>
      <point x="1355" y="353" type="curve" smooth="yes"/>
      <point x="1355" y="463"/>
      <point x="1300" y="599"/>
      <point x="1063" y="633" type="curve"/>
      <point x="1222" y="661"/>
      <point x="1294" y="751"/>
      <point x="1294" y="891" type="curve" smooth="yes"/>
      <point x="1294" y="1034"/>
      <point x="1159" y="1152"/>
      <point x="846" y="1152" type="curve" smooth="yes"/>
      <point x="44" y="1152" type="line"/>
      <point x="44" y="942" type="line"/>
      <point x="214" y="942" type="line"/>
      <point x="214" y="210" type="line"/>
      <point x="44" y="210" type="line"/>
    </contour>
    <contour>
      <point x="594" y="211" type="line"/>
      <point x="594" y="532" type="line"/>
      <point x="760" y="532" type="line" smooth="yes"/>
      <point x="941" y="532"/>
      <point x="960" y="443"/>
      <point x="960" y="373" type="curve" smooth="yes"/>
      <point x="960" y="290"/>
      <point x="917" y="211"/>
      <point x="761" y="211" type="curve" smooth="yes"/>
    </contour>
    <contour>
      <point x="594" y="718" type="line"/>
      <point x="594" y="942" type="line"/>
      <point x="764" y="944.714" type="line"/>
      <point x="863.875" y="941.246"/>
      <point x="907" y="906.193"/>
      <point x="907" y="837" type="curve" smooth="yes"/>
      <point x="907" y="749"/>
      <point x="859" y="718"/>
      <point x="747" y="718" type="curve" smooth="yes"/>
    </contour>
    <contour>
      <point x="619" y="1152" type="move" name="top"/>
    </contour>
  </outline>
</glyph>
<glyph name="C" format="1">
  <advance width="1478"/>
  <unicode hex="0043"/>
  <outline>
    <contour>
      <point x="82" y="196"/>
      <point x="366" y="-22"/>
      <point x="762" y="-22" type="curve" smooth="yes"/>
      <point x="1144" y="-22"/>
      <point x="1343" y="163"/>
      <point x="1394" y="426" type="curve"/>
      <point x="1112" y="498" type="line"/>
      <point x="1073" y="292"/>
      <point x="931" y="228"/>
      <point x="777" y="228" type="curve" smooth="yes"/>
      <point x="580" y="228"/>
      <point x="458" y="367"/>
      <point x="458" y="576" type="curve" smooth="yes"/>
      <point x="458" y="787"/>
      <point x="572" y="924"/>
      <point x="773" y="924" type="curve" smooth="yes"/>
      <point x="932" y="924"/>
      <point x="1039" y="865"/>
      <point x="1106" y="711" type="curve"/>
      <point x="1368" y="711" type="line"/>
      <point x="1368" y="1152" type="line"/>
      <point x="1131" y="1152" type="line"/>
      <point x="1131" y="1031" type="line"/>
      <point x="1117" y="1055"/>
      <point x="1008" y="1174"/>
      <point x="763" y="1174" type="curve" smooth="yes"/>
      <point x="371" y="1174"/>
      <point x="82" y="947"/>
      <point x="82" y="567" type="curve" smooth="yes"/>
    </contour>
    <contour>
      <point x="741" y="0" type="move" name="bot"/>
    </contour>
    <contour>
      <point x="752" y="1152" type="move" name="top"/>
    </contour>
  </outline>
</glyph>
<glyph name="E" format="1">
  <advance width="1298"/>
  <unicode hex="0045"/>
  <outline>
    <contour>
      <point x="966" y="431" type="line"/>
      <point x="966" y="211" type="line"/>
      <point x="596" y="211" type="line"/>
      <point x="596" y="500" type="line"/>
      <point x="764" y="500" type="line"/>
      <point x="764" y="395" type="line"/>
      <point x="869" y="395" type="line"/>
      <point x="869" y="826" type="line"/>
      <point x="762" y="826" type="line"/>
      <point x="762" y="705" type="line"/>
      <point x="596" y="705" type="line"/>
      <point x="596" y="937.963" type="line"/>
      <point x="964" y="942" type="line"/>
      <point x="964" y="765" type="line"/>
      <point x="1228" y="765" type="line"/>
      <point x="1228" y="1152" type="line"/>
      <point x="46" y="1152" type="line"/>
      <point x="46" y="942" type="line"/>
      <point x="216" y="942" type="line"/>
      <point x="216" y="210" type="line"/>
      <point x="46" y="210" type="line"/>
      <point x="46" y="0" type="line"/>
      <point x="1236" y="0" type="line"/>
      <point x="1236" y="431" type="line"/>
    </contour>
    <contour>
      <point x="620" y="0" type="move" name="bot"/>
    </contour>
    <contour>
      <point x="849" y="0" type="move" name="ogonek"/>
    </contour>
    <contour>
      <point x="686" y="1152" type="move" name="top"/>
    </contour>
  </outline>
</glyph>
<glyph name="G" format="1">
  <advance width="1535"/>
  <unicode hex="0047"/>
  <outline>
    <contour>
      <point x="94" y="205"/>
      <point x="332" y="-22"/>
      <point x="792" y="-22" type="curve" smooth="yes"/>
      <point x="1202" y="-22"/>
      <point x="1407" y="165"/>
      <point x="1412" y="603" type="curve"/>
      <point x="850" y="603" type="line"/>
      <point x="850" y="399" type="line"/>
      <point x="1075" y="399" type="line"/>
      <point x="1063" y="287"/>
      <point x="970" y="228"/>
      <point x="800" y="228" type="curve" smooth="yes"/>
      <point x="631" y="228"/>
      <point x="470" y="340"/>
      <point x="470" y="572" type="curve" smooth="yes"/>
      <point x="470" y="804"/>
      <point x="595" y="924"/>
      <point x="807" y="924" type="curve" smooth="yes"/>
      <point x="949" y="924"/>
      <point x="1069" y="864"/>
      <point x="1145" y="717" type="curve"/>
      <point x="1386" y="717" type="line"/>
      <point x="1386" y="1164" type="line"/>
      <point x="1131" y="1164" type="line"/>
      <point x="1131" y="1018" type="line"/>
      <point x="1110" y="1090"/>
      <point x="926" y="1174"/>
      <point x="776" y="1174" type="curve" smooth="yes"/>
      <point x="381" y="1174"/>
      <point x="94" y="931"/>
      <point x="94" y="572" type="curve" smooth="yes"/>
    </contour>
    <contour>
      <point x="800" y="0" type="move" name="bot"/>
    </contour>
    <contour>
      <point x="815" y="1152" type="move" name="top"/>
    </contour>
  </outline>
</glyph>
<glyph name="H" format="1">
  <advance width="1632"/>
  <unicode hex="0048"/>
  <outline>
    <contour>
      <point x="1586" y="942" type="line"/>
      <point x="1586" y="1152" type="line"/>
      <point x="866" y="1152" type="line"/>
      <point x="866" y="942" type="line"/>
      <point x="1036" y="942" type="line"/>
      <point x="1036" y="682" type="line"/>
      <point x="596" y="682" type="line"/>
      <point x="596" y="942" type="line"/>
      <point x="766" y="942" type="line"/>
      <point x="766" y="1152" type="line"/>
      <point x="46" y="1152" type="line"/>
      <point x="46" y="942" type="line"/>
      <point x="216" y="942" type="line"/>
      <point x="216" y="210" type="line"/>
      <point x="46" y="210" type="line"/>
      <point x="46" y="0" type="line"/>
      <point x="766" y="0" type="line"/>
      <point x="766" y="210" type="line"/>
      <point x="596" y="210" type="line"/>
      <point x="596" y="481" type="line"/>
      <point x="1036" y="481" type="line"/>
      <point x="1036" y="210" type="line"/>
      <point x="866" y="210" type="line"/>
      <point x="866" y="0" type="line"/>
      <point x="1586" y="0" type="line"/>
      <point x="1586" y="210" type="line"/>
      <point x="1416" y="210" type="line"/>
      <point x="1416" y="942" type="line"/>
    </contour>
    <contour>
      <point x="821" y="0" type="move" name="bot"/>
    </contour>
    <contour>
      <point x="822" y="1152" type="move" name="top"/>
    </contour>
  </outline>
</glyph>
<glyph name="I" format="1">
  <advance width="808"/>
  <unicode hex="0049"/>
  <outline>
    <contour>
      <point x="44" y="210" type="line"/>
      <point x="44" y="0" type="line"/>
      <point x="764" y="0" type="line"/>
      <point x="764" y="210" type="line"/>
      <point x="594" y="210" type="line"/>
      <point x="594" y="942" type="line"/>
      <point x="764" y="942" type="line"/>
      <point x="764" y="1152" type="line"/>
      <point x="44" y="1152" type="line"/>
      <point x="44" y="942" type="line"/>
      <point x="214" y="942" type="line"/>
      <point x="214" y="210" type="line"/>
    </contour>
    <contour>
      <point x="374" y="0" type="move" name="ogonek"/>
    </contour>
    <contour>
      <point x="398" y="1149" type="move" name="top"/>
    </contour>
  </outline>
</glyph>
<glyph name="J" format="1">
  <advance width="847"/>
  <unicode hex="004A"/>
  <outline>
    <contour>
      <point x="28" y="-42" type="line"/>
      <point x="28" y="-321" type="line"/>
      <point x="220" y="-321" type="line" smooth="yes"/>
      <point x="576" y="-321"/>
      <point x="628" y="-102"/>
      <point x="628" y="208" type="curve" smooth="yes"/>
      <point x="628" y="942" type="line"/>
      <point x="815" y="942" type="line"/>
      <point x="815" y="1152" type="line"/>
      <point x="44" y="1152" type="line"/>
      <point x="44" y="942" type="line"/>
      <point x="252" y="942" type="line"/>
      <point x="252" y="163" type="line" smooth="yes"/>
      <point x="252" y="67"/>
      <point x="229" y="-42"/>
      <point x="121" y="-42" type="curve" smooth="yes"/>
    </contour>
    <contour>
      <point x="423" y="1152" type="move" name="top"/>
    </contour>
  </outline>
</glyph>
<glyph name="L" format="1">
  <advance width="1327"/>
  <unicode hex="004C"/>
  <outline>
    <contour>
      <point x="958" y="572" type="line"/>
      <point x="958" y="210" type="line"/>
      <point x="596" y="210" type="line"/>
      <point x="596" y="942" type="line"/>
      <point x="766" y="942" type="line"/>
      <point x="766" y="1152" type="line"/>
      <point x="46" y="1152" type="line"/>
      <point x="46" y="942" type="line"/>
      <point x="216" y="942" type="line"/>
      <point x="216" y="210" type="line"/>
      <point x="46" y="210" type="line"/>
      <point x="46" y="0" type="line"/>
      <point x="1261" y="0" type="line"/>
      <point x="1261" y="572" type="line"/>
    </contour>
    <contour>
      <point x="726" y="914" type="move" name="caron.alt"/>
    </contour>
    <contour>
      <point x="405" y="639" type="move" name="mid"/>
    </contour>
    <contour>
      <point x="436" y="1152" type="move" name="top"/>
    </contour>
    <contour>
      <point x="663" y="0" type="move" name="bot"/>
    </contour>
  </outline>
</glyph>
<glyph name="O" format="1">
  <advance width="1552"/>
  <unicode hex="004F"/>
  <outline>
    <contour>
      <point x="82" y="209"/>
      <point x="360" y="-28"/>
      <point x="776" y="-22" type="curve" smooth="yes"/>
      <point x="1192" y="-28"/>
      <point x="1470" y="209"/>
      <point x="1470" y="571" type="curve" smooth="yes"/>
      <point x="1470" y="933"/>
      <point x="1192" y="1174"/>
      <point x="776" y="1174" type="curve" smooth="yes"/>
      <point x="360" y="1174"/>
      <point x="82" y="933"/>
      <point x="82" y="571" type="curve" smooth="yes"/>
    </contour>
    <contour>
      <point x="1094" y="371"/>
      <point x="967" y="228"/>
      <point x="776" y="228" type="curve" smooth="yes"/>
      <point x="585" y="228"/>
      <point x="458" y="371"/>
      <point x="458" y="581" type="curve" smooth="yes"/>
      <point x="458" y="793"/>
      <point x="585" y="927"/>
      <point x="776" y="924" type="curve" smooth="yes"/>
      <point x="967" y="927"/>
      <point x="1094" y="793"/>
      <point x="1094" y="581" type="curve" smooth="yes"/>
    </contour>
    <contour>
      <point x="825" y="0" type="move" name="ogonek"/>
    </contour>
    <contour>
      <point x="768" y="1149" type="move" name="top"/>
    </contour>
  </outline>
</glyph>
<glyph name="P" format="1">
  <advance width="1322"/>
  <unicode hex="0050"/>
  <outline>
    <contour>
      <point x="674" y="651" type="line"/>
      <point x="674" y="453" type="line"/>
      <point x="704" y="453" type="line" smooth="yes"/>
      <point x="1182" y="453"/>
      <point x="1282" y="562"/>
      <point x="1282" y="808" type="curve" smooth="yes"/>
      <point x="1282" y="1075"/>
      <point x="1106" y="1152"/>
      <point x="776" y="1152" type="curve" smooth="yes"/>
      <point x="46" y="1152" type="line"/>
      <point x="46" y="942" type="line"/>
      <point x="216" y="942" type="line"/>
      <point x="216" y="210" type="line"/>
      <point x="46" y="210" type="line"/>
      <point x="46" y="0" type="line"/>
      <point x="766" y="0" type="line"/>
      <point x="766" y="210" type="line"/>
      <point x="596" y="210" type="line"/>
      <point x="596" y="942" type="line"/>
      <point x="778" y="942" type="line" smooth="yes"/>
      <point x="839" y="942"/>
      <point x="906" y="905"/>
      <point x="906" y="809" type="curve" smooth="yes"/>
      <point x="906" y="706"/>
      <point x="870" y="651"/>
      <point x="726" y="651" type="curve" smooth="yes"/>
    </contour>
    <contour>
      <point x="609" y="1152" type="move" name="top"/>
    </contour>
  </outline>
</glyph>
<glyph name="Q" format="1">
  <advance width="1552"/>
  <unicode hex="0051"/>
  <outline>
    <contour>
      <point x="701" y="-403"/>
      <point x="1127" y="-415"/>
      <point x="1375" y="-346" type="curve"/>
      <point x="1375" y="-107" type="line"/>
      <point x="1208" y="-156"/>
      <point x="999" y="-174"/>
      <point x="920" y="-14" type="curve"/>
      <point x="1255" y="31"/>
      <point x="1470" y="252"/>
      <point x="1470" y="571" type="curve" smooth="yes"/>
      <point x="1470" y="933"/>
      <point x="1192" y="1174"/>
      <point x="776" y="1174" type="curve" smooth="yes"/>
      <point x="360" y="1174"/>
      <point x="82" y="933"/>
      <point x="82" y="571" type="curve" smooth="yes"/>
      <point x="82" y="268"/>
      <point x="277" y="52"/>
      <point x="585" y="-6" type="curve"/>
    </contour>
    <contour>
      <point x="1094" y="371"/>
      <point x="967" y="228"/>
      <point x="776" y="228" type="curve" smooth="yes"/>
      <point x="585" y="228"/>
      <point x="458" y="371"/>
      <point x="458" y="581" type="curve" smooth="yes"/>
      <point x="458" y="793"/>
      <point x="585" y="927"/>
      <point x="776" y="924" type="curve" smooth="yes"/>
      <point x="967" y="927"/>
      <point x="1094" y="793"/>
      <point x="1094" y="581" type="curve" smooth="yes"/>
    </contour>
    <contour>
      <point x="825" y="0" type="move" name="ogonek"/>
    </contour>
    <contour>
      <point x="768" y="1149" type="move" name="top"/>
    </contour>
  </outline>
</glyph>
<glyph name="R" format="1">
  <advance width="1516"/>
  <unicode hex="0052"/>
  <outline>
    <contour>
      <point x="1295" y="211" type="line"/>
      <point x="1119" y="520" type="line"/>
      <point x="1216" y="547"/>
      <point x="1367" y="600"/>
      <point x="1367" y="836" type="curve" smooth="yes"/>
      <point x="1367" y="1102"/>
      <point x="1161" y="1152"/>
      <point x="888" y="1152" type="curve" smooth="yes"/>
      <point x="46" y="1152" type="line"/>
      <point x="46" y="942" type="line"/>
      <point x="216" y="942" type="line"/>
      <point x="216" y="210" type="line"/>
      <point x="46" y="210" type="line"/>
      <point x="46" y="0" type="line"/>
      <point x="766" y="0" type="line"/>
      <point x="766" y="210" type="line"/>
      <point x="596" y="210" type="line"/>
      <point x="596" y="942" type="line"/>
      <point x="835" y="942" type="line" smooth="yes"/>
      <point x="943" y="942"/>
      <point x="990" y="886"/>
      <point x="990" y="817" type="curve" smooth="yes"/>
      <point x="990" y="735"/>
      <point x="949" y="682"/>
      <point x="816" y="682" type="curve" smooth="yes"/>
      <point x="676" y="682" type="line"/>
      <point x="676" y="485" type="line"/>
      <point x="757" y="485" type="line"/>
      <point x="1015" y="0" type="line"/>
      <point x="1460" y="0" type="line"/>
      <point x="1460" y="211" type="line"/>
    </contour>
    <contour>
      <point x="759" y="0" type="move" name="bot"/>
    </contour>
    <contour>
      <point x="603" y="1152" type="move" name="top"/>
    </contour>
  </outline>
</glyph>
<glyph name="T" format="1">
  <advance width="1365"/>
  <unicode hex="0054"/>
  <outline>
    <contour>
      <point x="7" y="1152" type="line"/>
      <point x="7" y="646" type="line"/>
      <point x="254" y="646" type="line"/>
      <point x="254" y="942" type="line"/>
      <point x="499" y="942" type="line"/>
      <point x="499" y="210" type="line"/>
      <point x="329" y="210" type="line"/>
      <point x="329" y="0" type="line"/>
      <point x="1049" y="0" type="line"/>
      <point x="1049" y="210" type="line"/>
      <point x="879" y="210" type="line"/>
      <point x="879" y="942" type="line"/>
      <point x="1117" y="942" type="line"/>
      <point x="1117" y="646" type="line"/>
      <point x="1358" y="646" type="line"/>
      <point x="1358" y="1152" type="line"/>
    </contour>
    <contour>
      <point x="687" y="546" type="move" name="mid"/>
    </contour>
    <contour>
      <point x="711" y="0" type="move" name="bot"/>
    </contour>
    <contour>
      <point x="689" y="1152" type="move" name="top"/>
    </contour>
  </outline>
</glyph>
<glyph name="V" format="1">
  <advance width="1556"/>
  <unicode hex="0056"/>
  <outline>
    <contour>
      <point x="199" y="942" type="line"/>
      <point x="658" y="0" type="line"/>
      <point x="920" y="0" type="line"/>
      <point x="1336" y="942" type="line"/>
      <point x="1516" y="942" type="line"/>
      <point x="1516" y="1152" type="line"/>
      <point x="924" y="1152" type="line"/>
      <point x="924" y="942" type="line"/>
      <point x="1086" y="942" type="line"/>
      <point x="844" y="393" type="line"/>
      <point x="608" y="942" type="line"/>
      <point x="763" y="942" type="line"/>
      <point x="763" y="1152" type="line"/>
      <point x="52" y="1152" type="line"/>
      <point x="52" y="942" type="line"/>
    </contour>
  </outline>
</glyph>
<glyph name="W" format="1">
  <advance width="2022"/>
  <unicode hex="0057"/>
  <outline>
    <contour>
      <point x="206" y="942" type="line"/>
      <point x="547" y="0" type="line"/>
      <point x="732" y="0" type="line"/>
      <point x="1016" y="592" type="line"/>
      <point x="1302" y="0" type="line"/>
      <point x="1499" y="0" type="line"/>
      <point x="1815" y="942" type="line"/>
      <point x="1962" y="942" type="line"/>
      <point x="1962" y="1152" type="line"/>
      <point x="1443" y="1152" type="line"/>
      <point x="1443" y="942" type="line"/>
      <point x="1594" y="942" type="line"/>
      <point x="1435" y="469" type="line"/>
      <point x="1137" y="1119" type="line"/>
      <point x="1048" y="1119" type="line"/>
      <point x="731" y="469" type="line"/>
      <point x="584" y="942" type="line"/>
      <point x="712" y="942" type="line"/>
      <point x="712" y="1152" type="line"/>
      <point x="60" y="1152" type="line"/>
      <point x="60" y="942" type="line"/>
    </contour>
    <contour>
      <point x="1096" y="1152" type="move" name="top"/>
    </contour>
  </outline>
</glyph>
<glyph name="X" format="1">
  <advance width="1531"/>
  <unicode hex="0058"/>
  <outline>
    <contour>
      <point x="36" y="210" type="line"/>
      <point x="36" y="0" type="line"/>
      <point x="631" y="0" type="line"/>
      <point x="631" y="210" type="line"/>
      <point x="490" y="210" type="line"/>
      <point x="698" y="411" type="line"/>
      <point x="892" y="210" type="line"/>
      <point x="774" y="210" type="line"/>
      <point x="774" y="0" type="line"/>
      <point x="1495" y="0" type="line"/>
      <point x="1495" y="210" type="line"/>
      <point x="1345" y="210" type="line"/>
      <point x="958" y="609" type="line"/>
      <point x="1289" y="942" type="line"/>
      <point x="1456" y="942" type="line"/>
      <point x="1456" y="1152" type="line"/>
      <point x="876" y="1152" type="line"/>
      <point x="876" y="942" type="line"/>
      <point x="995" y="942" type="line"/>
      <point x="821" y="760" type="line"/>
      <point x="645" y="942" type="line"/>
      <point x="742" y="942" type="line"/>
      <point x="742" y="1152" type="line"/>
      <point x="54" y="1152" type="line"/>
      <point x="54" y="942" type="line"/>
      <point x="182" y="942" type="line"/>
      <point x="557" y="562" type="line"/>
      <point x="194" y="210" type="line"/>
    </contour>
  </outline>
</glyph>
<glyph name="Y" format="1">
  <advance width="1439"/>
  <unicode hex="0059"/>
  <outline>
    <contour>
      <point x="326" y="210" type="line"/>
      <point x="326" y="0" type="line"/>
      <point x="1087" y="0" type="line"/>
      <point x="1087" y="210" type="line"/>
      <point x="896" y="210" type="line"/>
      <point x="896" y="454" type="line"/>
      <point x="1258" y="942" type="line"/>
      <point x="1425" y="942" type="line"/>
      <point x="1425" y="1152" type="line"/>
      <point x="836" y="1152" type="line"/>
      <point x="836" y="942" type="line"/>
      <point x="956" y="942" type="line"/>
      <point x="752" y="640" type="line"/>
      <point x="539" y="942" type="line"/>
      <point x="662" y="942" type="line"/>
      <point x="662" y="1152" type="line"/>
      <point x="-26" y="1152" type="line"/>
      <point x="-26" y="942" type="line"/>
      <point x="135" y="942" type="line"/>
      <point x="516" y="450" type="line"/>
      <point x="516" y="210" type="line"/>
    </contour>
    <contour>
      <point x="706" y="1149" type="move" name="top"/>
    </contour>
  </outline>
</glyph>
<glyph name="Z" format="1">
  <advance width="1295"/>
  <unicode hex="005A"/>
  <outline>
    <contour>
      <point x="60" y="0" type="line"/>
      <point x="1221" y="0" type="line"/>
      <point x="1221" y="603" type="line"/>
      <point x="982" y="603" type="line"/>
      <point x="982" y="211" type="line"/>
      <point x="531" y="211" type="line"/>
      <point x="1195" y="944" type="line"/>
      <point x="1195" y="1152" type="line"/>
      <point x="47" y="1152" type="line"/>
      <point x="47" y="590" type="line"/>
      <point x="290" y="590" type="line"/>
      <point x="290" y="942" type="line"/>
      <point x="693" y="942" type="line"/>
      <point x="60" y="225" type="line"/>
    </contour>
    <contour>
      <point x="656" y="1152" type="move" name="top"/>
    </contour>
  </outline>
</glyph>
<glyph name="bracketleft" format="1">
  <advance width="950"/>
  <unicode hex="005B"/>
  <outline>
    <contour>
      <point x="322" y="-242" type="line"/>
      <point x="770" y="-242" type="line"/>
      <point x="770" y="-75" type="line"/>
      <point x="591" y="-75" type="line"/>
      <point x="591" y="1094" type="line"/>
      <point x="770" y="1094" type="line"/>
      <point x="770" y="1255" type="line"/>
      <point x="322" y="1255" type="line"/>
    </contour>
  </outline>
</glyph>
<glyph name="grave" format="1">
  <advance width="714"/>
  <unicode hex="0060"/>
  <outline>
    <contour>
      <point x="365" y="928" type="line"/>
      <point x="554" y="928" type="line"/>
      <point x="465" y="1293" type="line"/>
      <point x="160" y="1293" type="line"/>
    </contour>
    <contour>
      <point x="464" y="804" type="move" name="_top"/>
    </contour>
  </outline>
</glyph>
<glyph name="b" format="1">
  <advance width="1206"/>
  <unicode hex="0062"/>
  <outline>
    <contour>
      <point x="684.255" y="826"/>
      <point x="601.988" y="799.375"/>
      <point x="522" y="752.394" type="curve"/>
      <point x="522" y="1174" type="line"/>
      <point x="40" y="1174" type="line"/>
      <point x="40" y="964" type="line"/>
      <point x="196" y="964" type="line"/>
      <point x="196" y="210" type="line"/>
      <point x="38" y="210" type="line"/>
      <point x="38" y="4.60815e-07" type="line"/>
      <point x="522" y="4.60815e-07" type="line"/>
      <point x="522" y="44.7778" type="line"/>
      <point x="593.85" y="0.448302"/>
      <point x="671.002" y="-21"/>
      <point x="751" y="-21" type="curve" smooth="yes"/>
      <point x="969" y="-21"/>
      <point x="1162" y="137"/>
      <point x="1162" y="421" type="curve" smooth="yes"/>
      <point x="1162" y="653"/>
      <point x="1020" y="826"/>
      <point x="766" y="826" type="curve" smooth="yes"/>
    </contour>
    <contour>
      <point x="570.789" y="167"/>
      <point x="547.688" y="169.268"/>
      <point x="522" y="176.186" type="curve"/>
      <point x="522" y="601.479" type="line"/>
      <point x="554.871" y="610.754"/>
      <point x="584.871" y="615"/>
      <point x="615" y="615" type="curve" smooth="yes"/>
      <point x="780" y="615"/>
      <point x="819" y="491"/>
      <point x="819" y="400" type="curve" smooth="yes"/>
      <point x="819" y="255"/>
      <point x="723" y="167"/>
      <point x="592" y="167" type="curve" smooth="yes"/>
    </contour>
    <contour>
      <point x="813" y="804" type="move" name="top"/>
    </contour>
  </outline>
</glyph>
<glyph name="d" format="1">
  <advance width="1151"/>
  <unicode hex="0064"/>
  <outline>
    <contour>
      <point x="1015" y="210" type="line"/>
      <point x="1015" y="1174" type="line"/>
      <point x="543" y="1174" type="line"/>
      <point x="543" y="964" type="line"/>
      <point x="689" y="964" type="line"/>
      <point x="689" y="744.187" type="line"/>
      <point x="616.089" y="793.559"/>
      <point x="535.544" y="826"/>
      <point x="455" y="826" type="curve" smooth="yes"/>
      <point x="208" y="826"/>
      <point x="43.9999" y="649"/>
      <point x="43.9999" y="384" type="curve" smooth="yes"/>
      <point x="43.9999" y="140"/>
      <point x="225" y="-22"/>
      <point x="497" y="-22" type="curve" smooth="yes"/>
      <point x="570.747" y="-22"/>
      <point x="633.593" y="-1.6135"/>
      <point x="689" y="32.1277" type="curve"/>
      <point x="689" y="-0.000103555" type="line"/>
      <point x="1107" y="-0.000103555" type="line"/>
      <point x="1107" y="210" type="line"/>
    </contour>
    <contour>
      <point x="461" y="190"/>
      <point x="387" y="276"/>
      <point x="387" y="405" type="curve" smooth="yes"/>
      <point x="387" y="545"/>
      <point x="470" y="614"/>
      <point x="595" y="614" type="curve" smooth="yes"/>
      <point x="624.31" y="614"/>
      <point x="656.197" y="609.017"/>
      <point x="689" y="599.656" type="curve"/>
      <point x="689" y="208.677" type="line"/>
      <point x="644.917" y="196.627"/>
      <point x="604.641" y="190"/>
      <point x="572" y="190" type="curve" smooth="yes"/>
    </contour>
    <contour>
      <point x="304" y="804" type="move" name="top"/>
    </contour>
    <contour>
      <point x="977" y="804" type="move" name="caron.alt"/>
    </contour>
    <contour>
      <point x="856" y="890" type="move" name="mid"/>
    </contour>
  </outline>
</glyph>
<glyph name="e" format="1">
  <advance width="955"/>
  <unicode hex="0065"/>
  <outline>
    <contour>
      <point x="41" y="133"/>
      <point x="223" y="-21"/>
      <point x="531" y="-21" type="curve" smooth="yes"/>
      <point x="672" y="-21"/>
      <point x="810" y="22"/>
      <point x="901" y="94" type="curve"/>
      <point x="819" y="260" type="line"/>
      <point x="746" y="219"/>
      <point x="657" y="192"/>
      <point x="578" y="192" type="curve" smooth="yes"/>
      <point x="473" y="192"/>
      <point x="386" y="238"/>
      <point x="379" y="357" type="curve"/>
      <point x="903" y="357" type="line"/>
      <point x="903" y="652"/>
      <point x="752" y="827"/>
      <point x="496" y="827" type="curve" smooth="yes"/>
      <point x="210" y="827"/>
      <point x="41" y="666"/>
      <point x="41" y="394" type="curve" smooth="yes"/>
    </contour>
    <contour>
      <point x="381" y="505" type="line"/>
      <point x="396" y="597"/>
      <point x="444" y="651"/>
      <point x="510" y="651" type="curve" smooth="yes"/>
      <point x="589" y="651"/>
      <point x="634" y="597"/>
      <point x="631" y="505" type="curve"/>
    </contour>
    <contour>
      <point x="509" y="0" type="move" name="bot"/>
    </contour>
    <contour>
      <point x="654" y="0" type="move" name="ogonek"/>
    </contour>
    <contour>
      <point x="487" y="804" type="move" name="top"/>
    </contour>
  </outline>
</glyph>
<glyph name="f" format="1">
  <advance width="920"/>
  <unicode hex="0066"/>
  <outline>
    <contour>
      <point x="66" y="210" type="line"/>
      <point x="66" y="0" type="line"/>
      <point x="817" y="0" type="line"/>
      <point x="817" y="210" type="line"/>
      <point x="580" y="210" type="line"/>
      <point x="580" y="594" type="line"/>
      <point x="817" y="594" type="line"/>
      <point x="817" y="804" type="line"/>
      <point x="580" y="804" type="line"/>
      <point x="580" y="895" type="line" smooth="yes"/>
      <point x="580" y="1037"/>
      <point x="630" y="1052"/>
      <point x="670" y="1052" type="curve" smooth="yes"/>
      <point x="741" y="1052"/>
      <point x="744" y="1014"/>
      <point x="757" y="933" type="curve"/>
      <point x="992" y="1009" type="line"/>
      <point x="968" y="1158"/>
      <point x="898" y="1245"/>
      <point x="617" y="1245" type="curve" smooth="yes"/>
      <point x="286" y="1245"/>
      <point x="254" y="1010"/>
      <point x="254" y="826" type="curve" smooth="yes"/>
      <point x="254" y="804" type="line"/>
      <point x="66" y="804" type="line"/>
      <point x="66" y="594" type="line"/>
      <point x="254" y="594" type="line"/>
      <point x="254" y="210" type="line"/>
    </contour>
    <contour>
      <point x="473" y="1201" type="move" name="top"/>
    </contour>
  </outline>
</glyph>
<glyph name="g" format="1">
  <advance width="1147"/>
  <unicode hex="0067"/>
  <outline>
    <contour>
      <point x="481" y="-401" type="curve" smooth="yes"/>
      <point x="754" y="-401"/>
      <point x="986" y="-308"/>
      <point x="986" y="73" type="curve" smooth="yes"/>
      <point x="986" y="598" type="line"/>
      <point x="1097" y="598" type="line"/>
      <point x="1097" y="804" type="line"/>
      <point x="738" y="804" type="line"/>
      <point x="702.744" y="737.45" type="line"/>
      <point x="627.299" y="789.409"/>
      <point x="543.15" y="824"/>
      <point x="459" y="824" type="curve" smooth="yes"/>
      <point x="212" y="824"/>
      <point x="48" y="651"/>
      <point x="48" y="391" type="curve" smooth="yes"/>
      <point x="48" y="152"/>
      <point x="229" y="-7"/>
      <point x="501" y="-7" type="curve" smooth="yes"/>
      <point x="556.46" y="-7"/>
      <point x="605.755" y="4.3695"/>
      <point x="650.357" y="24.1177" type="curve"/>
      <point x="650.141" y="18.7925"/>
      <point x="649.871" y="13.587"/>
      <point x="649.545" y="8.49966" type="curve" smooth="yes"/>
      <point x="640.769" y="-128.639"/>
      <point x="591.781" y="-180"/>
      <point x="478" y="-180" type="curve" smooth="yes"/>
      <point x="391" y="-180"/>
      <point x="315" y="-168"/>
      <point x="199" y="-133" type="curve"/>
      <point x="149" y="-344" type="line"/>
      <point x="255" y="-376"/>
      <point x="352" y="-401"/>
    </contour>
    <contour>
      <point x="576" y="201" type="curve" smooth="yes"/>
      <point x="465" y="201"/>
      <point x="391" y="285"/>
      <point x="391" y="412" type="curve" smooth="yes"/>
      <point x="391" y="549"/>
      <point x="474" y="617"/>
      <point x="599" y="617" type="curve" smooth="yes"/>
      <point x="615.015" y="617"/>
      <point x="631.799" y="615.538"/>
      <point x="649.082" y="612.713" type="curve"/>
      <point x="650.492" y="209.336" type="line"/>
      <point x="623.015" y="203.893"/>
      <point x="597.804" y="201"/>
    </contour>
    <contour>
      <point x="571" y="804" type="move" name="top"/>
    </contour>
  </outline>
</glyph>
<glyph name="h" format="1">
  <advance width="1279"/>
  <unicode hex="0068"/>
  <outline>
    <contour>
      <point x="1125" y="210" type="line"/>
      <point x="1125" y="484" type="line" smooth="yes"/>
      <point x="1128" y="720"/>
      <point x="1003" y="826"/>
      <point x="841" y="826" type="curve" smooth="yes"/>
      <point x="717.566" y="826"/>
      <point x="607.769" y="778.035"/>
      <point x="500" y="675.655" type="curve"/>
      <point x="500" y="1174" type="line"/>
      <point x="44" y="1174" type="line"/>
      <point x="44" y="964" type="line"/>
      <point x="174" y="964" type="line"/>
      <point x="174" y="210" type="line"/>
      <point x="44" y="210" type="line"/>
      <point x="44" y="-4.02832e-07" type="line"/>
      <point x="621" y="-4.02832e-07" type="line"/>
      <point x="621" y="210" type="line"/>
      <point x="500" y="210" type="line"/>
      <point x="500" y="530.942" type="line"/>
      <point x="558.054" y="572.11"/>
      <point x="616.201" y="589.543"/>
      <point x="677" y="589" type="curve" smooth="yes"/>
      <point x="748" y="589"/>
      <point x="799" y="548"/>
      <point x="799" y="445" type="curve" smooth="yes"/>
      <point x="799" y="210" type="line"/>
      <point x="702" y="210" type="line"/>
      <point x="702" y="-1.39475e-06" type="line"/>
      <point x="1259" y="-1.39475e-06" type="line"/>
      <point x="1259" y="210" type="line"/>
    </contour>
    <contour>
      <point x="329" y="861" type="move" name="mid"/>
    </contour>
    <contour>
      <point x="607" y="1152" type="move" name="top"/>
    </contour>
  </outline>
</glyph>
<glyph name="i" format="1">
  <advance width="674"/>
  <unicode hex="0069"/>
  <outline>
    <contour>
      <point x="143" y="1039"/>
      <point x="219" y="966"/>
      <point x="334" y="966" type="curve" smooth="yes"/>
      <point x="450" y="966"/>
      <point x="526" y="1039"/>
      <point x="525" y="1150" type="curve"/>
      <point x="525" y="1259"/>
      <point x="450" y="1332"/>
      <point x="334" y="1332" type="curve" smooth="yes"/>
      <point x="219" y="1332"/>
      <point x="143" y="1259"/>
      <point x="143" y="1150" type="curve" smooth="yes"/>
    </contour>
    <contour>
      <point x="73" y="210" type="line"/>
      <point x="73" y="0" type="line"/>
      <point x="621" y="0" type="line"/>
      <point x="621" y="210" type="line"/>
      <point x="518" y="210" type="line"/>
      <point x="518" y="804" type="line"/>
      <point x="82" y="804" type="line"/>
      <point x="82" y="594" type="line"/>
      <point x="192" y="594" type="line"/>
      <point x="192" y="210" type="line"/>
    </contour>
    <contour>
      <point x="327" y="802" type="move" name="top"/>
    </contour>
    <contour>
      <point x="346" y="0" type="move" name="ogonek"/>
    </contour>
  </outline>
</glyph>
<glyph name="j" format="1">
  <advance width="632"/>
  <unicode hex="006A"/>
  <outline>
    <contour>
      <point x="164" y="1041"/>
      <point x="240" y="968"/>
      <point x="355" y="968" type="curve" smooth="yes"/>
      <point x="471" y="968"/>
      <point x="547" y="1041"/>
      <point x="546" y="1152" type="curve"/>
      <point x="546" y="1261"/>
      <point x="471" y="1334"/>
      <point x="355" y="1334" type="curve" smooth="yes"/>
      <point x="240" y="1334"/>
      <point x="164" y="1261"/>
      <point x="164" y="1152" type="curve" smooth="yes"/>
    </contour>
    <contour>
      <point x="-16" y="-101" type="line"/>
      <point x="-16" y="-346" type="line"/>
      <point x="94" y="-346" type="line" smooth="yes"/>
      <point x="630" y="-346"/>
      <point x="559" y="25"/>
      <point x="559" y="230" type="curve" smooth="yes"/>
      <point x="559" y="804" type="line"/>
      <point x="70" y="804" type="line"/>
      <point x="70" y="594" type="line"/>
      <point x="221" y="594" type="line"/>
      <point x="221" y="78" type="line" smooth="yes"/>
      <point x="221" y="-88"/>
      <point x="162" y="-101"/>
      <point x="49" y="-101" type="curve" smooth="yes"/>
    </contour>
    <contour>
      <point x="357" y="804" type="move" name="top"/>
    </contour>
  </outline>
</glyph>
<glyph name="k" format="1">
  <advance width="1238"/>
  <unicode hex="006B"/>
  <outline>
    <contour>
      <point x="1047" y="211" type="line"/>
      <point x="819" y="444" type="line"/>
      <point x="1028" y="597" type="line"/>
      <point x="1154" y="597" type="line"/>
      <point x="1154" y="804" type="line"/>
      <point x="621" y="804" type="line"/>
      <point x="621" y="597" type="line"/>
      <point x="767" y="597" type="line"/>
      <point x="500" y="419.32" type="line"/>
      <point x="500" y="1174" type="line"/>
      <point x="44" y="1174" type="line"/>
      <point x="44" y="964" type="line"/>
      <point x="174" y="964" type="line"/>
      <point x="174" y="210" type="line"/>
      <point x="44" y="210" type="line"/>
      <point x="44" y="0" type="line"/>
      <point x="621" y="0" type="line"/>
      <point x="621" y="210" type="line"/>
      <point x="500" y="210" type="line"/>
      <point x="500" y="399.685" type="line"/>
      <point x="857" y="0" type="line"/>
      <point x="1194" y="0" type="line"/>
      <point x="1194" y="211" type="line"/>
    </contour>
    <contour>
      <point x="861" y="1003" type="move" name="top"/>
    </contour>
    <contour>
      <point x="659" y="0" type="move" name="bot"/>
    </contour>
  </outline>
</glyph>
<glyph name="l" format="1">
  <advance width="673"/>
  <unicode hex="006C"/>
  <outline>
    <contour>
      <point x="52" y="210" type="line"/>
      <point x="52" y="0" type="line"/>
      <point x="629" y="0" type="line"/>
      <point x="629" y="210" type="line"/>
      <point x="508" y="210" type="line"/>
      <point x="508" y="1174" type="line"/>
      <point x="52" y="1174" type="line"/>
      <point x="52" y="964" type="line"/>
      <point x="182" y="964" type="line"/>
      <point x="182" y="210" type="line"/>
    </contour>
    <contour>
      <point x="462" y="914" type="move" name="caron.alt"/>
    </contour>
    <contour>
      <point x="343" y="658" type="move" name="mid"/>
    </contour>
    <contour>
      <point x="331" y="1152" type="move" name="top"/>
    </contour>
    <contour>
      <point x="349" y="0" type="move" name="bot"/>
    </contour>
  </outline>
</glyph>
<glyph name="m" format="1">
  <advance width="1975"/>
  <unicode hex="006D"/>
  <outline>
    <contour>
      <point x="1814" y="210" type="line"/>
      <point x="1814" y="484" type="line" smooth="yes"/>
      <point x="1817" y="720"/>
      <point x="1684" y="826"/>
      <point x="1513" y="826" type="curve" smooth="yes"/>
      <point x="1371.75" y="826"/>
      <point x="1247.45" y="770.213"/>
      <point x="1124.33" y="650.55" type="curve"/>
      <point x="1077.49" y="770.544"/>
      <point x="973.685" y="826"/>
      <point x="850" y="826" type="curve" smooth="yes"/>
      <point x="729.605" y="826"/>
      <point x="621.528" y="785.472"/>
      <point x="516" y="699.409" type="curve"/>
      <point x="516" y="804" type="line"/>
      <point x="53" y="804" type="line"/>
      <point x="53" y="594" type="line"/>
      <point x="170" y="594" type="line"/>
      <point x="170" y="210" type="line"/>
      <point x="44" y="210" type="line"/>
      <point x="44" y="-6.41479e-06" type="line"/>
      <point x="625" y="-6.41479e-06" type="line"/>
      <point x="625" y="210" type="line"/>
      <point x="516" y="210" type="line"/>
      <point x="516" y="547.945" type="line"/>
      <point x="568.384" y="576.952"/>
      <point x="621.129" y="589.461"/>
      <point x="676" y="589" type="curve" smooth="yes"/>
      <point x="751" y="589"/>
      <point x="805" y="548"/>
      <point x="805" y="445" type="curve" smooth="yes"/>
      <point x="805" y="210" type="line"/>
      <point x="702" y="210" type="line"/>
      <point x="702" y="-0.000105815" type="line"/>
      <point x="1293" y="-0.000105815" type="line"/>
      <point x="1293" y="210" type="line"/>
      <point x="1151" y="210" type="line"/>
      <point x="1151" y="484" type="line" smooth="yes"/>
      <point x="1151.2" y="499.927"/>
      <point x="1150.79" y="515.262"/>
      <point x="1149.78" y="530.012" type="curve"/>
      <point x="1211.82" y="571.847"/>
      <point x="1273.92" y="589.547"/>
      <point x="1339" y="589" type="curve" smooth="yes"/>
      <point x="1414" y="589"/>
      <point x="1468" y="548"/>
      <point x="1468" y="445" type="curve" smooth="yes"/>
      <point x="1468" y="210" type="line"/>
      <point x="1365" y="210" type="line"/>
      <point x="1365" y="-0.000208037" type="line"/>
      <point x="1956" y="-0.000208037" type="line"/>
      <point x="1956" y="210" type="line"/>
    </contour>
    <contour>
      <point x="1015" y="804" type="move" name="top"/>
    </contour>
  </outline>
</glyph>
<glyph name="n" format="1">
  <advance width="1261"/>
  <unicode hex="006E"/>
  <outline>
    <contour>
      <point x="1107" y="210" type="line"/>
      <point x="1107" y="484" type="line" smooth="yes"/>
      <point x="1110" y="720"/>
      <point x="985" y="826"/>
      <point x="823" y="826" type="curve" smooth="yes"/>
      <point x="702.237" y="826"/>
      <point x="594.528" y="780.088"/>
      <point x="489" y="682.225" type="curve"/>
      <point x="489" y="804" type="line"/>
      <point x="53" y="804" type="line"/>
      <point x="53" y="594" type="line"/>
      <point x="163" y="594" type="line"/>
      <point x="163" y="210" type="line"/>
      <point x="44" y="210" type="line"/>
      <point x="44" y="-1.80054e-06" type="line"/>
      <point x="592" y="-1.80054e-06" type="line"/>
      <point x="592" y="210" type="line"/>
      <point x="489" y="210" type="line"/>
      <point x="489" y="535.791" type="line"/>
      <point x="544.732" y="573.482"/>
      <point x="600.644" y="589.521"/>
      <point x="659" y="589" type="curve" smooth="yes"/>
      <point x="730" y="589"/>
      <point x="781" y="548"/>
      <point x="781" y="445" type="curve" smooth="yes"/>
      <point x="781" y="210" type="line"/>
      <point x="684" y="210" type="line"/>
      <point x="684" y="-0.000102558" type="line"/>
      <point x="1241" y="-0.000102558" type="line"/>
      <point x="1241" y="210" type="line"/>
    </contour>
    <contour>
      <point x="659" y="0" type="move" name="bot"/>
    </contour>
    <contour>
      <point x="640" y="804" type="move" name="top"/>
    </contour>
  </outline>
</glyph>
<glyph name="o" format="1">
  <advance width="1056"/>
  <unicode hex="006F"/>
  <outline>
    <contour>
      <point x="44" y="153"/>
      <point x="238" y="-22"/>
      <point x="528" y="-22" type="curve" smooth="yes"/>
      <point x="818" y="-22"/>
      <point x="1012" y="153"/>
      <point x="1012" y="416" type="curve" smooth="yes"/>
      <point x="1012" y="662"/>
      <point x="818" y="826"/>
      <point x="528" y="826" type="curve" smooth="yes"/>
      <point x="238" y="826"/>
      <point x="44" y="662"/>
      <point x="44" y="416" type="curve" smooth="yes"/>
    </contour>
    <contour>
      <point x="681" y="277"/>
      <point x="620" y="187"/>
      <point x="528" y="189" type="curve"/>
      <point x="436" y="187"/>
      <point x="375" y="277"/>
      <point x="375" y="415" type="curve" smooth="yes"/>
      <point x="375" y="535"/>
      <point x="436" y="615"/>
      <point x="528" y="615" type="curve" smooth="yes"/>
      <point x="620" y="615"/>
      <point x="681" y="535"/>
      <point x="681" y="415" type="curve" smooth="yes"/>
    </contour>
    <contour>
      <point x="547" y="0" type="move" name="ogonek"/>
    </contour>
    <contour>
      <point x="510" y="826" type="move" name="top"/>
    </contour>
  </outline>
</glyph>
<glyph name="p" format="1">
  <advance width="1157"/>
  <unicode hex="0070"/>
  <outline>
    <contour>
      <point x="639.636" y="826"/>
      <point x="561.804" y="802.152"/>
      <point x="485.879" y="759.771" type="curve"/>
      <point x="485" y="804" type="line"/>
      <point x="14" y="804" type="line"/>
      <point x="14" y="594" type="line"/>
      <point x="160" y="594" type="line"/>
      <point x="160" y="-183" type="line"/>
      <point x="14" y="-183" type="line"/>
      <point x="14" y="-393" type="line"/>
      <point x="665" y="-393" type="line"/>
      <point x="665" y="-183" type="line"/>
      <point x="486" y="-183" type="line"/>
      <point x="486.526" y="36.7383" type="line"/>
      <point x="554.5" y="-2.1474"/>
      <point x="626.999" y="-20.9999"/>
      <point x="701.999" y="-20.9999" type="curve" smooth="yes"/>
      <point x="919.999" y="-20.9999"/>
      <point x="1113" y="137"/>
      <point x="1113" y="421" type="curve" smooth="yes"/>
      <point x="1113" y="653"/>
      <point x="970.999" y="826"/>
      <point x="716.999" y="826" type="curve" smooth="yes"/>
    </contour>
    <contour>
      <point x="525.671" y="167"/>
      <point x="507.082" y="168.514"/>
      <point x="486.851" y="172.84" type="curve"/>
      <point x="487.885" y="605.383" type="line"/>
      <point x="515.047" y="611.953"/>
      <point x="540.477" y="615"/>
      <point x="565.999" y="615" type="curve" smooth="yes"/>
      <point x="730.999" y="615"/>
      <point x="769.999" y="491"/>
      <point x="769.999" y="400" type="curve" smooth="yes"/>
      <point x="769.999" y="255"/>
      <point x="673.999" y="167"/>
      <point x="542.999" y="167" type="curve" smooth="yes"/>
    </contour>
    <contour>
      <point x="573" y="804" type="move" name="top"/>
    </contour>
  </outline>
</glyph>
<glyph name="q" format="1">
  <advance width="1153"/>
  <unicode hex="0071"/>
  <outline>
    <contour>
      <point x="523" y="-397" type="line"/>
      <point x="1154" y="-397" type="line"/>
      <point x="1154" y="-187" type="line"/>
      <point x="1021" y="-187" type="line"/>
      <point x="1021" y="594" type="line"/>
      <point x="1093" y="594" type="line"/>
      <point x="1093" y="804" type="line"/>
      <point x="694" y="804" type="line"/>
      <point x="694.67" y="740.303" type="line"/>
      <point x="620.276" y="791.85"/>
      <point x="537.638" y="826"/>
      <point x="455" y="826" type="curve" smooth="yes"/>
      <point x="208" y="826"/>
      <point x="44" y="649"/>
      <point x="44" y="384" type="curve" smooth="yes"/>
      <point x="44" y="140"/>
      <point x="225" y="-22.0001"/>
      <point x="497" y="-22.0001" type="curve" smooth="yes"/>
      <point x="573.422" y="-22.0001"/>
      <point x="638.137" y="-0.1078"/>
      <point x="695" y="35.8517" type="curve"/>
      <point x="695" y="-187" type="line"/>
      <point x="523" y="-187" type="line"/>
    </contour>
    <contour>
      <point x="572" y="190" type="curve" smooth="yes"/>
      <point x="461" y="190"/>
      <point x="387" y="276"/>
      <point x="387" y="405" type="curve" smooth="yes"/>
      <point x="387" y="545"/>
      <point x="470" y="614"/>
      <point x="595" y="614" type="curve" smooth="yes"/>
      <point x="626.094" y="614"/>
      <point x="660.089" y="608.392"/>
      <point x="695" y="597.898" type="curve"/>
      <point x="695" y="210.344" type="line"/>
      <point x="648.573" y="197.239"/>
      <point x="606.116" y="190"/>
    </contour>
  </outline>
</glyph>
<glyph name="r" format="1">
  <advance width="876"/>
  <unicode hex="0072"/>
  <outline>
    <contour>
      <point x="642.685" y="814"/>
      <point x="555.976" y="774.86"/>
      <point x="491" y="634.507" type="curve"/>
      <point x="491" y="804" type="line"/>
      <point x="55.0001" y="804" type="line"/>
      <point x="55.0001" y="594" type="line"/>
      <point x="165" y="594" type="line"/>
      <point x="165" y="210" type="line"/>
      <point x="46.0001" y="210" type="line"/>
      <point x="46.0001" y="9.56116e-05" type="line"/>
      <point x="594" y="9.56116e-05" type="line"/>
      <point x="594" y="210" type="line"/>
      <point x="491" y="210" type="line"/>
      <point x="491" y="438" type="line" smooth="yes"/>
      <point x="491" y="524"/>
      <point x="573" y="551"/>
      <point x="642" y="551" type="curve" smooth="yes"/>
      <point x="704" y="551"/>
      <point x="772" y="529"/>
      <point x="806" y="509" type="curve"/>
      <point x="874" y="776" type="line"/>
      <point x="827" y="794"/>
      <point x="777" y="814"/>
      <point x="718" y="814" type="curve" smooth="yes"/>
    </contour>
    <contour>
      <point x="323" y="0" type="move" name="bot"/>
    </contour>
    <contour>
      <point x="462" y="804" type="move" name="top"/>
    </contour>
  </outline>
</glyph>
<glyph name="s" format="1">
  <advance width="938"/>
  <unicode hex="0073"/>
  <outline>
    <contour>
      <point x="307" y="18"/>
      <point x="449" y="-22"/>
      <point x="552" y="-22" type="curve" smooth="yes"/>
      <point x="689" y="-22"/>
      <point x="854" y="25"/>
      <point x="854" y="237" type="curve" smooth="yes"/>
      <point x="854" y="388"/>
      <point x="762" y="428"/>
      <point x="651" y="465" type="curve" smooth="yes"/>
      <point x="520" y="509" type="line" smooth="yes"/>
      <point x="447" y="533"/>
      <point x="408" y="545"/>
      <point x="408" y="587" type="curve" smooth="yes"/>
      <point x="408" y="623"/>
      <point x="439" y="638"/>
      <point x="491" y="638" type="curve" smooth="yes"/>
      <point x="541" y="638"/>
      <point x="624" y="612"/>
      <point x="655" y="585" type="curve"/>
      <point x="670" y="502" type="line"/>
      <point x="851" y="502" type="line"/>
      <point x="851" y="823" type="line"/>
      <point x="653" y="823" type="line"/>
      <point x="653" y="750" type="line"/>
      <point x="605" y="787"/>
      <point x="545" y="827"/>
      <point x="411" y="826" type="curve" smooth="yes"/>
      <point x="291" y="826"/>
      <point x="84" y="771"/>
      <point x="84" y="589" type="curve" smooth="yes"/>
      <point x="84" y="475"/>
      <point x="146" y="384"/>
      <point x="263" y="346" type="curve" smooth="yes"/>
      <point x="454" y="284" type="line" smooth="yes"/>
      <point x="513" y="265"/>
      <point x="547" y="249"/>
      <point x="547" y="211" type="curve" smooth="yes"/>
      <point x="547" y="185"/>
      <point x="531" y="166"/>
      <point x="476" y="166" type="curve" smooth="yes"/>
      <point x="401" y="166"/>
      <point x="288" y="205"/>
      <point x="259" y="252" type="curve"/>
      <point x="255" y="300" type="line"/>
      <point x="87" y="300" type="line"/>
      <point x="87" y="0" type="line"/>
      <point x="274" y="0" type="line"/>
      <point x="274" y="81" type="line"/>
    </contour>
    <contour>
      <point x="544" y="0" type="move" name="bot"/>
    </contour>
    <contour>
      <point x="417" y="804" type="move" name="top"/>
    </contour>
  </outline>
</glyph>
<glyph name="t" format="1">
  <advance width="745"/>
  <unicode hex="0074"/>
  <outline>
    <contour>
      <point x="143" y="76"/>
      <point x="236" y="0"/>
      <point x="405" y="0" type="curve" smooth="yes"/>
      <point x="681" y="0" type="line"/>
      <point x="681" y="210" type="line"/>
      <point x="525" y="210" type="line" smooth="yes"/>
      <point x="472" y="210"/>
      <point x="469" y="242"/>
      <point x="469" y="260" type="curve" smooth="yes"/>
      <point x="469" y="594" type="line"/>
      <point x="681" y="594" type="line"/>
      <point x="681" y="804" type="line"/>
      <point x="469" y="804" type="line"/>
      <point x="469" y="1138" type="line"/>
      <point x="143" y="1086" type="line"/>
      <point x="143" y="804" type="line"/>
      <point x="16" y="804" type="line"/>
      <point x="16" y="594" type="line"/>
      <point x="143" y="594" type="line"/>
      <point x="143" y="246" type="line" smooth="yes"/>
    </contour>
    <contour>
      <point x="401" y="1095" type="move" name="caron.alt"/>
    </contour>
    <contour>
      <point x="317" y="1068" type="move" name="top"/>
    </contour>
    <contour>
      <point x="313" y="454" type="move" name="mid"/>
    </contour>
    <contour>
      <point x="431" y="0" type="move" name="bot"/>
    </contour>
  </outline>
</glyph>
<glyph name="u" format="1">
  <advance width="1227"/>
  <unicode hex="0075"/>
  <outline>
    <contour>
      <point x="131" y="132"/>
      <point x="200" y="-22"/>
      <point x="439" y="-22" type="curve" smooth="yes"/>
      <point x="573" y="-22"/>
      <point x="663" y="21"/>
      <point x="742" y="85" type="curve"/>
      <point x="743" y="0" type="line"/>
      <point x="1186" y="0" type="line"/>
      <point x="1186" y="210" type="line"/>
      <point x="1068" y="210" type="line"/>
      <point x="1068" y="804" type="line"/>
      <point x="620" y="804" type="line"/>
      <point x="620" y="594" type="line"/>
      <point x="742" y="594" type="line"/>
      <point x="742" y="273" type="line"/>
      <point x="698" y="238"/>
      <point x="633" y="209"/>
      <point x="576" y="209" type="curve" smooth="yes"/>
      <point x="511" y="209"/>
      <point x="457" y="247"/>
      <point x="457" y="359" type="curve" smooth="yes"/>
      <point x="457" y="804" type="line"/>
      <point x="21" y="804" type="line"/>
      <point x="21" y="594" type="line"/>
      <point x="131" y="594" type="line"/>
      <point x="131" y="291" type="line" smooth="yes"/>
    </contour>
    <contour>
      <point x="951" y="0" type="move" name="ogonek"/>
    </contour>
    <contour>
      <point x="561" y="804" type="move" name="top"/>
    </contour>
  </outline>
</glyph>
<glyph name="v" format="1">
  <advance width="1202"/>
  <unicode hex="0076"/>
  <outline>
    <contour>
      <point x="155" y="594" type="line"/>
      <point x="465" y="0" type="line"/>
      <point x="749" y="0" type="line"/>
      <point x="1053" y="594" type="line"/>
      <point x="1170" y="594" type="line"/>
      <point x="1170" y="804" type="line"/>
      <point x="704" y="804" type="line"/>
      <point x="704" y="594" type="line"/>
      <point x="798" y="594" type="line"/>
      <point x="656" y="302" type="line"/>
      <point x="513" y="594" type="line"/>
      <point x="594" y="594" type="line"/>
      <point x="594" y="804" type="line"/>
      <point x="32" y="804" type="line"/>
      <point x="32" y="594" type="line"/>
    </contour>
  </outline>
</glyph>
<glyph name="x" format="1">
  <advance width="1097"/>
  <unicode hex="0078"/>
  <outline>
    <contour>
      <point x="27" y="210" type="line"/>
      <point x="27" y="0" type="line"/>
      <point x="440" y="0" type="line"/>
      <point x="440" y="210" type="line"/>
      <point x="340" y="210" type="line"/>
      <point x="488" y="318" type="line"/>
      <point x="632" y="210" type="line"/>
      <point x="544" y="210" type="line"/>
      <point x="544" y="0" type="line"/>
      <point x="1064" y="0" type="line"/>
      <point x="1064" y="210" type="line"/>
      <point x="960" y="210" type="line"/>
      <point x="694" y="435" type="line"/>
      <point x="921" y="594" type="line"/>
      <point x="1047" y="594" type="line"/>
      <point x="1047" y="804" type="line"/>
      <point x="643" y="804" type="line"/>
      <point x="643" y="594" type="line"/>
      <point x="726" y="594" type="line"/>
      <point x="599" y="499" type="line"/>
      <point x="479" y="594" type="line"/>
      <point x="524" y="594" type="line"/>
      <point x="524" y="804" type="line"/>
      <point x="33" y="804" type="line"/>
      <point x="33" y="594" type="line"/>
      <point x="150" y="594" type="line"/>
      <point x="385" y="396" type="line"/>
      <point x="135" y="210" type="line"/>
    </contour>
  </outline>
</glyph>
<glyph name="braceright" format="1">
  <advance width="1024"/>
  <unicode hex="007D"/>
  <outline>
    <contour>
      <point x="178" y="-235" type="line"/>
      <point x="290" y="-235" type="line" smooth="yes"/>
      <point x="709" y="-235"/>
      <point x="703" y="-84"/>
      <point x="703" y="133" type="curve" smooth="yes"/>
      <point x="703" y="319"/>
      <point x="757" y="406"/>
      <point x="911" y="406" type="curve"/>
      <point x="911" y="570" type="line"/>
      <point x="757" y="570"/>
      <point x="703" y="657"/>
      <point x="703" y="843" type="curve" smooth="yes"/>
      <point x="703" y="1060"/>
      <point x="709" y="1211"/>
      <point x="290" y="1211" type="curve" smooth="yes"/>
      <point x="178" y="1211" type="line"/>
      <point x="178" y="1035" type="line"/>
      <point x="358" y="1035"/>
      <point x="384" y="993"/>
      <point x="384" y="914" type="curve" smooth="yes"/>
      <point x="384" y="591"/>
      <point x="398" y="507"/>
      <point x="665" y="488" type="curve"/>
      <point x="398" y="459"/>
      <point x="384" y="385"/>
      <point x="384" y="62" type="curve" smooth="yes"/>
      <point x="384" y="-17"/>
      <point x="358" y="-59"/>
      <point x="178" y="-59" type="curve"/>
    </contour>
  </outline>
</glyph>
<glyph name="exclamdown" format="1">
  <advance width="724"/>
  <unicode hex="00A1"/>
  <outline>
    <contour>
      <point x="216" y="-209" type="line"/>
      <point x="505" y="-209" type="line"/>
      <point x="505" y="62" type="line"/>
      <point x="420" y="553" type="line"/>
      <point x="316" y="553" type="line"/>
      <point x="216" y="62" type="line"/>
    </contour>
    <contour>
      <point x="525" y="671" type="line"/>
      <point x="525" y="943" type="line"/>
      <point x="192" y="943" type="line"/>
      <point x="192" y="671" type="line"/>
    </contour>
  </outline>
</glyph>
<glyph name="yen" format="1">
  <advance width="1399"/>
  <unicode hex="00A5"/>
  <outline>
    <contour>
      <point x="205" y="297" type="line"/>
      <point x="1186" y="297" type="line"/>
      <point x="1186" y="414" type="line"/>
      <point x="812" y="414" type="line"/>
      <point x="812" y="503" type="line"/>
      <point x="1186" y="503" type="line"/>
      <point x="1186" y="622" type="line"/>
      <point x="205" y="622" type="line"/>
      <point x="205" y="503" type="line"/>
      <point x="652" y="503" type="line"/>
      <point x="652" y="414" type="line"/>
      <point x="205" y="414" type="line"/>
    </contour>
    <component base="Y"/>
  </outline>
</glyph>
<glyph name="ordfeminine" format="1">
  <advance width="1009"/>
  <unicode hex="00AA"/>
  <outline>
    <contour>
      <point x="405" y="470" type="curve" smooth="yes"/>
      <point x="476" y="470"/>
      <point x="555" y="491"/>
      <point x="618" y="533" type="curve"/>
      <point x="642" y="487" type="line"/>
      <point x="943" y="487" type="line"/>
      <point x="943" y="664" type="line"/>
      <point x="850" y="664" type="line"/>
      <point x="850" y="906" type="line" smooth="yes"/>
      <point x="850" y="1091"/>
      <point x="693" y="1174"/>
      <point x="505" y="1174" type="curve" smooth="yes"/>
      <point x="390" y="1174"/>
      <point x="273" y="1149"/>
      <point x="165" y="1091" type="curve"/>
      <point x="231" y="931" type="line"/>
      <point x="339" y="976"/>
      <point x="413" y="993"/>
      <point x="473" y="993" type="curve" smooth="yes"/>
      <point x="543" y="993"/>
      <point x="578" y="960"/>
      <point x="578" y="892" type="curve" smooth="yes"/>
      <point x="578" y="871" type="line"/>
      <point x="549" y="879"/>
      <point x="508" y="884"/>
      <point x="465" y="884" type="curve" smooth="yes"/>
      <point x="332" y="884"/>
      <point x="163" y="837"/>
      <point x="163" y="687" type="curve" smooth="yes"/>
      <point x="163" y="540"/>
      <point x="277" y="470"/>
    </contour>
    <contour>
      <point x="487" y="610" type="curve" smooth="yes"/>
      <point x="443" y="610"/>
      <point x="408" y="637"/>
      <point x="408" y="680" type="curve" smooth="yes"/>
      <point x="408" y="743"/>
      <point x="453" y="765"/>
      <point x="504" y="765" type="curve" smooth="yes"/>
      <point x="528" y="765"/>
      <point x="557" y="760"/>
      <point x="578" y="752" type="curve"/>
      <point x="578" y="642" type="line"/>
      <point x="548" y="620"/>
      <point x="514" y="610"/>
    </contour>
  </outline>
</glyph>
<glyph name="logicalnot" format="1">
  <advance width="1147"/>
  <unicode hex="00AC"/>
  <outline>
    <contour>
      <point x="795" y="281" type="line"/>
      <point x="982" y="281" type="line"/>
      <point x="982" y="804" type="line"/>
      <point x="175" y="804" type="line"/>
      <point x="175" y="598" type="line"/>
      <point x="795" y="598" type="line"/>
    </contour>
  </outline>
</glyph>
<glyph name="macron" format="1">
  <advance width="737"/>
  <unicode hex="00AF"/>
  <outline>
    <contour>
      <point x="100" y="973" type="line"/>
      <point x="637" y="973" type="line"/>
      <point x="637" y="1116" type="line"/>
      <point x="100" y="1116" type="line"/>
    </contour>
    <contour>
      <point x="367" y="1055" type="move" name="_mid"/>
    </contour>
    <contour>
      <point x="375" y="804" type="move" name="_top"/>
    </contour>
  </outline>
</glyph>
<glyph name="mu" format="1">
  <advance width="1238"/>
  <unicode hex="00B5"/>
  <outline>
    <contour>
      <point x="131" y="-277" type="line"/>
      <point x="457" y="-277" type="line"/>
      <point x="457" y="479" type="line"/>
      <point x="131" y="479" type="line"/>
    </contour>
    <component base="u"/>
  </outline>
</glyph>
<glyph name="paragraph" format="1">
  <advance width="1227"/>
  <unicode hex="00B6"/>
  <outline>
    <contour>
      <point x="426" y="0" type="line"/>
      <point x="1183" y="0" type="line"/>
      <point x="1183" y="210" type="line"/>
      <point x="1004" y="210" type="line"/>
      <point x="1004" y="942" type="line"/>
      <point x="1183" y="942" type="line"/>
      <point x="1183" y="1152" type="line"/>
      <point x="526" y="1152" type="line" smooth="yes"/>
      <point x="95" y="1152"/>
      <point x="69" y="911"/>
      <point x="69" y="789" type="curve" smooth="yes"/>
      <point x="69" y="645"/>
      <point x="168" y="417"/>
      <point x="445" y="434" type="curve"/>
      <point x="699" y="434" type="line"/>
      <point x="699" y="210" type="line"/>
      <point x="426" y="210" type="line"/>
    </contour>
    <contour>
      <point x="498" y="627" type="line"/>
      <point x="498" y="942" type="line"/>
      <point x="699" y="942" type="line"/>
      <point x="699" y="630" type="line"/>
    </contour>
  </outline>
</glyph>
<glyph name="onequarter" format="1">
  <advance width="2262"/>
  <unicode hex="00BC"/>
  <outline>
    <contour>
      <point x="1598" y="0" type="line"/>
      <point x="2102" y="0" type="line"/>
      <point x="2102" y="149" type="line"/>
      <point x="1979" y="149" type="line"/>
      <point x="1979" y="275" type="line"/>
      <point x="2097" y="275" type="line"/>
      <point x="2097" y="401" type="line"/>
      <point x="1979" y="401" type="line"/>
      <point x="1979" y="818" type="line"/>
      <point x="1731" y="818" type="line"/>
      <point x="1382" y="383" type="line"/>
      <point x="1402" y="275" type="line"/>
      <point x="1745" y="275" type="line"/>
      <point x="1745" y="149" type="line"/>
      <point x="1598" y="149" type="line"/>
    </contour>
    <contour>
      <point x="172" y="336" type="line"/>
      <point x="733" y="336" type="line"/>
      <point x="733" y="486" type="line"/>
      <point x="586" y="486" type="line"/>
      <point x="586" y="1152" type="line"/>
      <point x="172" y="1109" type="line"/>
      <point x="172" y="962" type="line"/>
      <point x="326" y="991" type="line"/>
      <point x="326" y="486" type="line"/>
      <point x="172" y="486" type="line"/>
    </contour>
    <contour>
      <point x="649" y="-87" type="line"/>
      <point x="809" y="-87" type="line"/>
      <point x="1591" y="1212" type="line"/>
      <point x="1435" y="1212" type="line"/>
    </contour>
    <contour>
      <point x="1555" y="401" type="line"/>
      <point x="1745" y="649" type="line"/>
      <point x="1745" y="401" type="line"/>
    </contour>
  </outline>
</glyph>
<glyph name="onehalf" format="1">
  <advance width="2335"/>
  <unicode hex="00BD"/>
  <outline>
    <contour>
      <point x="1485" y="0" type="line"/>
      <point x="2145" y="0" type="line"/>
      <point x="2140" y="268" type="line"/>
      <point x="1969" y="268" type="line"/>
      <point x="1966" y="133" type="line"/>
      <point x="1773.08" y="133" type="line"/>
      <point x="2008.08" y="351" type="line"/>
      <point x="2106.48" y="444.23"/>
      <point x="2136" y="505.238"/>
      <point x="2136" y="581" type="curve" smooth="yes"/>
      <point x="2136" y="789.011"/>
      <point x="1918.21" y="834"/>
      <point x="1789" y="834" type="curve" smooth="yes"/>
      <point x="1544" y="834"/>
      <point x="1457" y="702.495"/>
      <point x="1457" y="574" type="curve" smooth="yes"/>
      <point x="1457" y="531.671"/>
      <point x="1466.75" y="489.728"/>
      <point x="1484.55" y="451" type="curve"/>
      <point x="1694.78" y="451" type="line"/>
      <point x="1686.13" y="481.757"/>
      <point x="1681" y="512.51"/>
      <point x="1681" y="540" type="curve" smooth="yes"/>
      <point x="1681" y="620.489"/>
      <point x="1715.03" y="673"/>
      <point x="1788" y="673" type="curve" smooth="yes"/>
      <point x="1839.49" y="673"/>
      <point x="1886" y="651.607"/>
      <point x="1886" y="581" type="curve" smooth="yes"/>
      <point x="1886" y="551.301"/>
      <point x="1876.66" y="512.904"/>
      <point x="1834.91" y="474" type="curve" smooth="yes"/>
      <point x="1485.99" y="151.208" type="line"/>
    </contour>
    <contour>
      <point x="172" y="336" type="line"/>
      <point x="733" y="336" type="line"/>
      <point x="733" y="486" type="line"/>
      <point x="586" y="486" type="line"/>
      <point x="586" y="1152" type="line"/>
      <point x="172" y="1109" type="line"/>
      <point x="172" y="962" type="line"/>
      <point x="326" y="991" type="line"/>
      <point x="326" y="486" type="line"/>
      <point x="172" y="486" type="line"/>
    </contour>
    <contour>
      <point x="660" y="-87" type="line"/>
      <point x="820" y="-87" type="line"/>
      <point x="1602" y="1212" type="line"/>
      <point x="1446" y="1212" type="line"/>
    </contour>
  </outline>
</glyph>
<glyph name="AE" format="1">
  <advance width="1983"/>
  <unicode hex="00C6"/>
  <outline>
    <contour>
      <point x="30" y="0" type="line"/>
      <point x="633" y="0" type="line"/>
      <point x="633" y="210" type="line"/>
      <point x="547" y="210" type="line"/>
      <point x="649" y="413" type="line"/>
      <point x="954" y="413" type="line"/>
      <point x="954" y="210" type="line"/>
      <point x="818" y="210" type="line"/>
      <point x="818" y="0" type="line"/>
      <point x="1932" y="0" type="line"/>
      <point x="1932" y="385" type="line"/>
      <point x="1736" y="385" type="line"/>
      <point x="1736" y="210" type="line"/>
      <point x="1337" y="210" type="line"/>
      <point x="1337" y="524" type="line"/>
      <point x="1495" y="524" type="line"/>
      <point x="1495" y="381" type="line"/>
      <point x="1627" y="381" type="line"/>
      <point x="1627" y="789" type="line"/>
      <point x="1495" y="789" type="line"/>
      <point x="1495" y="633" type="line"/>
      <point x="1336" y="633" type="line"/>
      <point x="1336" y="942" type="line"/>
      <point x="1734" y="942" type="line"/>
      <point x="1734" y="774" type="line"/>
      <point x="1930" y="774" type="line"/>
      <point x="1930" y="1152" type="line"/>
      <point x="491" y="1152" type="line"/>
      <point x="491" y="942" type="line"/>
      <point x="609" y="942" type="line"/>
      <point x="196" y="210" type="line"/>
      <point x="30" y="210" type="line"/>
    </contour>
    <contour>
      <point x="715" y="544" type="line"/>
      <point x="930" y="942" type="line"/>
      <point x="954" y="942" type="line"/>
      <point x="954" y="544" type="line"/>
    </contour>
    <contour>
      <point x="1257" y="1152" type="move" name="top"/>
    </contour>
  </outline>
</glyph>
<glyph name="Oslash" format="1">
  <advance width="1584"/>
  <unicode hex="00D8"/>
  <outline>
    <contour>
      <point x="385" y="-107" type="line"/>
      <point x="1346" y="1158" type="line"/>
      <point x="1205" y="1259" type="line"/>
      <point x="244" y="-6" type="line"/>
    </contour>
    <component base="O"/>
  </outline>
</glyph>
<glyph name="Thorn" format="1">
  <advance width="1326"/>
  <unicode hex="00DE"/>
  <outline>
    <contour>
      <point x="652" y="474" type="line"/>
      <point x="652" y="333" type="line"/>
      <point x="679" y="333" type="line" smooth="yes"/>
      <point x="1189" y="333"/>
      <point x="1312" y="421"/>
      <point x="1312" y="597" type="curve" smooth="yes"/>
      <point x="1312" y="797"/>
      <point x="1136" y="852"/>
      <point x="806" y="852" type="curve" smooth="yes"/>
      <point x="594" y="852" type="line"/>
      <point x="594" y="942" type="line"/>
      <point x="764" y="942" type="line"/>
      <point x="764" y="1152" type="line"/>
      <point x="44" y="1152" type="line"/>
      <point x="44" y="942" type="line"/>
      <point x="214" y="942" type="line"/>
      <point x="214" y="210" type="line"/>
      <point x="44" y="210" type="line"/>
      <point x="44" y="0" type="line"/>
      <point x="764" y="0" type="line"/>
      <point x="764" y="210" type="line"/>
      <point x="594" y="210" type="line"/>
      <point x="594" y="704" type="line"/>
      <point x="793" y="704" type="line" smooth="yes"/>
      <point x="854" y="704"/>
      <point x="921" y="676"/>
      <point x="921" y="597" type="curve" smooth="yes"/>
      <point x="921" y="524"/>
      <point x="885" y="474"/>
      <point x="741" y="474" type="curve" smooth="yes"/>
    </contour>
  </outline>
</glyph>
<glyph name="ae" format="1">
  <advance width="1490"/>
  <unicode hex="00E6"/>
  <outline>
    <contour>
      <point x="428" y="-22" type="curve" smooth="yes"/>
      <point x="531" y="-22"/>
      <point x="601" y="-2"/>
      <point x="717.421" y="75.8843" type="curve"/>
      <point x="800.675" y="12.914"/>
      <point x="917.464" y="-21"/>
      <point x="1062" y="-21" type="curve" smooth="yes"/>
      <point x="1203" y="-21"/>
      <point x="1341" y="22"/>
      <point x="1432" y="94" type="curve"/>
      <point x="1350" y="260" type="line"/>
      <point x="1277" y="219"/>
      <point x="1188" y="192"/>
      <point x="1109" y="192" type="curve" smooth="yes"/>
      <point x="1004" y="192"/>
      <point x="917" y="238"/>
      <point x="910" y="357" type="curve"/>
      <point x="1434" y="357" type="line"/>
      <point x="1434" y="652"/>
      <point x="1283" y="826"/>
      <point x="1027" y="826" type="curve" smooth="yes"/>
      <point x="918" y="826"/>
      <point x="826.655" y="803.781"/>
      <point x="754.639" y="760.084" type="curve"/>
      <point x="681.544" y="803.451"/>
      <point x="586.508" y="824"/>
      <point x="484" y="824" type="curve" smooth="yes"/>
      <point x="346" y="824"/>
      <point x="206" y="794"/>
      <point x="76.0001" y="725" type="curve"/>
      <point x="155" y="533" type="line"/>
      <point x="285" y="587"/>
      <point x="374" y="607"/>
      <point x="446" y="607" type="curve" smooth="yes"/>
      <point x="529" y="607"/>
      <point x="572" y="568"/>
      <point x="572" y="486" type="curve" smooth="yes"/>
      <point x="572" y="461" type="line"/>
      <point x="537" y="470"/>
      <point x="487" y="476"/>
      <point x="436" y="476" type="curve" smooth="yes"/>
      <point x="276" y="476"/>
      <point x="74.0001" y="420"/>
      <point x="74.0001" y="240" type="curve" smooth="yes"/>
      <point x="74" y="4"/>
      <point x="298" y="-22"/>
    </contour>
    <contour>
      <point x="474" y="146" type="curve" smooth="yes"/>
      <point x="415" y="146"/>
      <point x="368" y="176"/>
      <point x="368" y="232" type="curve" smooth="yes"/>
      <point x="368" y="307"/>
      <point x="422" y="334"/>
      <point x="483" y="334" type="curve" smooth="yes"/>
      <point x="523" y="334"/>
      <point x="566" y="325"/>
      <point x="576" y="324" type="curve"/>
      <point x="583" y="280"/>
      <point x="599.894" y="226.034"/>
      <point x="619.066" y="190.304" type="curve"/>
      <point x="581" y="168"/>
      <point x="529" y="146"/>
    </contour>
    <contour>
      <point x="912" y="505" type="line"/>
      <point x="927" y="597"/>
      <point x="975" y="651"/>
      <point x="1041" y="651" type="curve" smooth="yes"/>
      <point x="1120" y="651"/>
      <point x="1165" y="597"/>
      <point x="1162" y="505" type="curve"/>
    </contour>
    <contour>
      <point x="753" y="804" type="move" name="top"/>
    </contour>
  </outline>
</glyph>
<glyph name="thorn" format="1">
  <advance width="1226"/>
  <unicode hex="00FE"/>
  <outline>
    <contour>
      <point x="672" y="826"/>
      <point x="594" y="802"/>
      <point x="518" y="761" type="curve"/>
      <point x="518" y="1149" type="line"/>
      <point x="33" y="1149" type="line"/>
      <point x="33" y="942" type="line"/>
      <point x="191" y="942" type="line"/>
      <point x="191" y="-183" type="line"/>
      <point x="46" y="-183" type="line"/>
      <point x="46" y="-392" type="line"/>
      <point x="518" y="-392" type="line"/>
      <point x="518" y="37" type="line"/>
      <point x="586" y="-2"/>
      <point x="658" y="-21"/>
      <point x="733" y="-21" type="curve" smooth="yes"/>
      <point x="951" y="-21"/>
      <point x="1144" y="137"/>
      <point x="1144" y="421" type="curve" smooth="yes"/>
      <point x="1144" y="653"/>
      <point x="1002" y="826"/>
      <point x="748" y="826" type="curve" smooth="yes"/>
    </contour>
    <contour>
      <point x="557" y="167"/>
      <point x="538" y="169"/>
      <point x="518" y="173" type="curve"/>
      <point x="518" y="605" type="line"/>
      <point x="546" y="612"/>
      <point x="571" y="615"/>
      <point x="597" y="615" type="curve" smooth="yes"/>
      <point x="762" y="615"/>
      <point x="801" y="491"/>
      <point x="801" y="400" type="curve" smooth="yes"/>
      <point x="801" y="255"/>
      <point x="705" y="167"/>
      <point x="574" y="167" type="curve" smooth="yes"/>
    </contour>
  </outline>
</glyph>
<glyph name="dotlessi" format="1">
  <advance width="852"/>
  <unicode hex="0131"/>
  <outline>
    <contour>
      <point x="149" y="0" type="line"/>
      <point x="697" y="0" type="line"/>
      <point x="697" y="210" type="line"/>
      <point x="594" y="210" type="line"/>
      <point x="594" y="804" type="line"/>
      <point x="158" y="804" type="line"/>
      <point x="158" y="594" type="line"/>
      <point x="268" y="594" type="line"/>
      <point x="268" y="210" type="line"/>
      <point x="149" y="210" type="line"/>
    </contour>
    <contour>
      <point x="437" y="0" type="move" name="ogonek"/>
    </contour>
    <contour>
      <point x="402" y="802" type="move" name="top"/>
    </contour>
  </outline>
</glyph>
<glyph name="Eng" format="1">
  <advance width="1708"/>
  <unicode hex="014A"/>
  <outline>
    <contour>
      <point x="1659" y="942" type="line"/>
      <point x="1659" y="1152" type="line"/>
      <point x="1051" y="1152" type="line"/>
      <point x="1051" y="942" type="line"/>
      <point x="1219" y="942" type="line"/>
      <point x="1219" y="507" type="line"/>
      <point x="633" y="1152" type="line"/>
      <point x="46" y="1152" type="line"/>
      <point x="46" y="942" type="line"/>
      <point x="230" y="942" type="line"/>
      <point x="230" y="210" type="line"/>
      <point x="46" y="210" type="line"/>
      <point x="46" y="0" type="line"/>
      <point x="647" y="0" type="line"/>
      <point x="647" y="210" type="line"/>
      <point x="474" y="210" type="line"/>
      <point x="474" y="795" type="line"/>
      <point x="1221" y="8" type="line"/>
      <point x="1221" y="-190"/>
      <point x="1047" y="-195"/>
      <point x="917" y="-195" type="curve"/>
      <point x="917" y="-374" type="line"/>
      <point x="1188" y="-374"/>
      <point x="1467" y="-391"/>
      <point x="1467" y="-2" type="curve" smooth="yes"/>
      <point x="1467" y="942" type="line"/>
    </contour>
  </outline>
</glyph>
<glyph name="eng" format="1">
  <advance width="1259"/>
  <unicode hex="014B"/>
  <outline>
    <contour>
      <point x="702" y="826"/>
      <point x="592" y="778"/>
      <point x="485" y="677" type="curve"/>
      <point x="485" y="804" type="line"/>
      <point x="49" y="804" type="line"/>
      <point x="49" y="594" type="line"/>
      <point x="159" y="594" type="line"/>
      <point x="159" y="210" type="line"/>
      <point x="40" y="210" type="line"/>
      <point x="40" y="0" type="line"/>
      <point x="588" y="0" type="line"/>
      <point x="588" y="210" type="line"/>
      <point x="485" y="210" type="line"/>
      <point x="485" y="532" type="line"/>
      <point x="543" y="572"/>
      <point x="601" y="590"/>
      <point x="661" y="589" type="curve" smooth="yes"/>
      <point x="732" y="589"/>
      <point x="783" y="548"/>
      <point x="783" y="445" type="curve" smooth="yes"/>
      <point x="783" y="148" type="line" smooth="yes"/>
      <point x="783" y="-50"/>
      <point x="729" y="-115"/>
      <point x="601" y="-115" type="curve"/>
      <point x="597" y="-344" type="line"/>
      <point x="870" y="-344"/>
      <point x="1109" y="-251"/>
      <point x="1109" y="138" type="curve" smooth="yes"/>
      <point x="1109" y="484" type="line" smooth="yes"/>
      <point x="1109" y="720"/>
      <point x="987" y="826"/>
      <point x="825" y="826" type="curve" smooth="yes"/>
    </contour>
  </outline>
</glyph>
<glyph name="oe" format="1">
  <advance width="1583"/>
  <unicode hex="0153"/>
  <outline>
    <contour>
      <point x="508" y="-22" type="curve" smooth="yes"/>
      <point x="691" y="-22"/>
      <point x="786" y="59"/>
      <point x="827" y="126" type="curve"/>
      <point x="865" y="59"/>
      <point x="973" y="-21"/>
      <point x="1169" y="-21" type="curve" smooth="yes"/>
      <point x="1310" y="-21"/>
      <point x="1438" y="21.9999"/>
      <point x="1529" y="93.9999" type="curve"/>
      <point x="1447" y="260" type="line"/>
      <point x="1374" y="219"/>
      <point x="1285" y="192"/>
      <point x="1206" y="192" type="curve" smooth="yes"/>
      <point x="1101" y="192"/>
      <point x="1014" y="238"/>
      <point x="1007" y="357" type="curve"/>
      <point x="1531" y="357" type="line"/>
      <point x="1531" y="652"/>
      <point x="1380" y="827"/>
      <point x="1124" y="827" type="curve" smooth="yes"/>
      <point x="975" y="827"/>
      <point x="880" y="769"/>
      <point x="827" y="687" type="curve"/>
      <point x="766" y="778"/>
      <point x="638" y="826"/>
      <point x="518" y="826" type="curve" smooth="yes"/>
      <point x="228" y="826"/>
      <point x="44.0001" y="662"/>
      <point x="44.0001" y="416" type="curve" smooth="yes"/>
      <point x="44.0001" y="153"/>
      <point x="218" y="-22"/>
    </contour>
    <contour>
      <point x="517" y="189" type="curve"/>
      <point x="425" y="187"/>
      <point x="364" y="277"/>
      <point x="364" y="415" type="curve" smooth="yes"/>
      <point x="364" y="535"/>
      <point x="425" y="615"/>
      <point x="517" y="615" type="curve" smooth="yes"/>
      <point x="609" y="615"/>
      <point x="670" y="535"/>
      <point x="670" y="415" type="curve" smooth="yes"/>
      <point x="670" y="277"/>
      <point x="609" y="187"/>
    </contour>
    <contour>
      <point x="1009" y="505" type="line"/>
      <point x="1024" y="597"/>
      <point x="1072" y="651"/>
      <point x="1138" y="651" type="curve" smooth="yes"/>
      <point x="1217" y="651"/>
      <point x="1262" y="597"/>
      <point x="1259" y="505" type="curve"/>
    </contour>
  </outline>
</glyph>
<glyph name="uni02BC" format="1">
  <advance width="600"/>
  <unicode hex="02BC"/>
  <outline>
    <component base="uni0326" xOffset="-148" yOffset="1525"/>
    <contour>
      <point x="156" y="500" type="move" name="top"/>
    </contour>
  </outline>
</glyph>
<glyph name="circumflex" format="1">
  <advance width="898"/>
  <unicode hex="02C6"/>
  <outline>
    <contour>
      <point x="120" y="928" type="line"/>
      <point x="309" y="928" type="line"/>
      <point x="449" y="1177" type="line"/>
      <point x="589" y="928" type="line"/>
      <point x="778" y="928" type="line"/>
      <point x="689" y="1293" type="line"/>
      <point x="209" y="1293" type="line"/>
    </contour>
    <contour>
      <point x="454" y="804" type="move" name="_top"/>
    </contour>
  </outline>
</glyph>
<glyph name="dotaccent" format="1">
  <advance width="536"/>
  <unicode hex="02D9"/>
  <outline>
    <contour>
      <point x="269" y="968" type="curve" smooth="yes"/>
      <point x="385" y="968"/>
      <point x="461" y="1041"/>
      <point x="460" y="1152" type="curve" smooth="yes"/>
      <point x="460" y="1261"/>
      <point x="385" y="1334"/>
      <point x="269" y="1334" type="curve" smooth="yes"/>
      <point x="154" y="1334"/>
      <point x="78" y="1261"/>
      <point x="78" y="1152" type="curve" smooth="yes"/>
      <point x="78" y="1041"/>
      <point x="154" y="968"/>
    </contour>
    <contour>
      <point x="271" y="804" type="move" name="_top"/>
    </contour>
  </outline>
</glyph>
<glyph name="tilde" format="1">
  <advance width="1001"/>
  <unicode hex="02DC"/>
  <outline>
    <contour>
      <point x="699" y="899" type="curve" smooth="yes"/>
      <point x="844" y="899"/>
      <point x="885" y="1011"/>
      <point x="901" y="1202" type="curve"/>
      <point x="748" y="1202" type="line"/>
      <point x="739" y="1145"/>
      <point x="719" y="1130"/>
      <point x="695" y="1130" type="curve" smooth="yes"/>
      <point x="607" y="1130"/>
      <point x="463" y="1230"/>
      <point x="323" y="1230" type="curve" smooth="yes"/>
      <point x="211" y="1230"/>
      <point x="116" y="1153"/>
      <point x="100" y="932" type="curve"/>
      <point x="255" y="932" type="line"/>
      <point x="262" y="990"/>
      <point x="292" y="1000"/>
      <point x="322" y="1000" type="curve" smooth="yes"/>
      <point x="436" y="1000"/>
      <point x="604" y="898"/>
    </contour>
    <contour>
      <point x="501" y="804" type="move" name="_top"/>
    </contour>
  </outline>
</glyph>
<glyph name="uni0312" format="1">
  <advance width="600"/>
  <unicode hex="0312"/>
  <outline>
    <contour>
      <point x="126" y="937" type="curve"/>
      <point x="475" y="937" type="line"/>
      <point x="471" y="1276" type="line"/>
      <point x="286" y="1276" type="line"/>
      <point x="286" y="1394"/>
      <point x="354" y="1440"/>
      <point x="467" y="1448" type="curve"/>
      <point x="467" y="1556" type="line"/>
      <point x="193" y="1555"/>
      <point x="110" y="1497"/>
      <point x="110" y="1225" type="curve" smooth="yes"/>
      <point x="110" y="1131"/>
      <point x="117" y="1009"/>
    </contour>
    <contour>
      <point x="298" y="804" type="move" name="_top"/>
    </contour>
  </outline>
</glyph>
<glyph name="uni0326" format="1">
  <advance width="600"/>
  <unicode hex="0326"/>
  <outline>
    <contour>
      <point x="136" y="-690" type="line"/>
      <point x="410" y="-689"/>
      <point x="480" y="-631"/>
      <point x="480" y="-359" type="curve" smooth="yes"/>
      <point x="480" y="-265"/>
      <point x="473" y="-183"/>
      <point x="464" y="-111" type="curve"/>
      <point x="128" y="-111" type="line"/>
      <point x="132" y="-410" type="line"/>
      <point x="304" y="-410" type="line"/>
      <point x="304" y="-528"/>
      <point x="249" y="-574"/>
      <point x="136" y="-582" type="curve"/>
    </contour>
    <contour>
      <point x="300" y="0" type="move" name="_bot"/>
    </contour>
  </outline>
</glyph>
<glyph name="uni03A9" format="1">
  <advance width="1478"/>
  <unicode hex="03A9"/>
  <outline>
    <contour>
      <point x="80" y="0" type="line"/>
      <point x="681" y="0" type="line"/>
      <point x="681" y="190" type="line"/>
      <point x="474" y="252"/>
      <point x="400" y="452"/>
      <point x="400" y="617" type="curve" smooth="yes"/>
      <point x="400" y="824"/>
      <point x="526" y="947"/>
      <point x="739" y="947" type="curve" smooth="yes"/>
      <point x="951" y="947"/>
      <point x="1077" y="824"/>
      <point x="1077" y="616" type="curve" smooth="yes"/>
      <point x="1077" y="452"/>
      <point x="1004" y="252"/>
      <point x="797" y="190" type="curve"/>
      <point x="797" y="0" type="line"/>
      <point x="1398" y="0" type="line"/>
      <point x="1398" y="210" type="line"/>
      <point x="1156" y="210" type="line"/>
      <point x="1327" y="309"/>
      <point x="1398" y="469"/>
      <point x="1398" y="636" type="curve" smooth="yes"/>
      <point x="1398" y="925"/>
      <point x="1155" y="1174"/>
      <point x="739" y="1174" type="curve" smooth="yes"/>
      <point x="325" y="1174"/>
      <point x="80" y="924"/>
      <point x="80" y="634" type="curve" smooth="yes"/>
      <point x="80" y="468"/>
      <point x="152" y="309"/>
      <point x="323" y="210" type="curve"/>
      <point x="80" y="210" type="line"/>
    </contour>
  </outline>
</glyph>
<glyph name="uni2015" format="1">
  <advance width="1434"/>
  <unicode hex="2015"/>
  <outline>
    <contour>
      <point x="0" y="751" type="line"/>
      <point x="1434" y="751" type="line"/>
      <point x="1434" y="882" type="line"/>
      <point x="0" y="882" type="line"/>
    </contour>
  </outline>
</glyph>
<glyph name="quoteleft" format="1">
  <advance width="686"/>
  <unicode hex="2018"/>
  <outline>
    <contour>
      <point x="174" y="610" type="line"/>
      <point x="486" y="610" type="line"/>
      <point x="486" y="897" type="line"/>
      <point x="335" y="897" type="line"/>
      <point x="335" y="1008"/>
      <point x="360" y="1044"/>
      <point x="449" y="1044" type="curve"/>
      <point x="449" y="1174" type="line"/>
      <point x="221" y="1174"/>
      <point x="174" y="1001"/>
      <point x="174" y="885" type="curve" smooth="yes"/>
    </contour>
  </outline>
</glyph>
<glyph name="daggerdbl" format="1">
  <advance width="828"/>
  <unicode hex="2021"/>
  <outline>
    <contour>
      <point x="309" y="-227" type="line"/>
      <point x="522" y="-227" type="line"/>
      <point x="458" y="37" type="line"/>
      <point x="756" y="-6" type="line"/>
      <point x="756" y="189" type="line"/>
      <point x="478" y="141" type="line"/>
      <point x="465" y="506" type="line"/>
      <point x="478" y="865" type="line"/>
      <point x="756" y="818" type="line"/>
      <point x="756" y="1012" type="line"/>
      <point x="458" y="969" type="line"/>
      <point x="522" y="1233" type="line"/>
      <point x="309" y="1233" type="line"/>
      <point x="370" y="969" type="line"/>
      <point x="72" y="1012" type="line"/>
      <point x="72" y="818" type="line"/>
      <point x="350" y="865" type="line"/>
      <point x="362" y="508" type="line"/>
      <point x="350" y="141" type="line"/>
      <point x="72" y="189" type="line"/>
      <point x="72" y="-6" type="line"/>
      <point x="370" y="37" type="line"/>
    </contour>
  </outline>
</glyph>
<glyph name="perthousand" format="1">
  <advance width="2842"/>
  <unicode hex="2030"/>
  <outline>
    <contour>
      <point x="2359" y="132" type="curve"/>
      <point x="2288" y="135"/>
      <point x="2247" y="192"/>
      <point x="2247" y="287" type="curve" smooth="yes"/>
      <point x="2247" y="381"/>
      <point x="2288" y="437"/>
      <point x="2359" y="440" type="curve"/>
      <point x="2431" y="437"/>
      <point x="2473" y="381"/>
      <point x="2473" y="287" type="curve" smooth="yes"/>
      <point x="2473" y="192"/>
      <point x="2431" y="135"/>
    </contour>
    <contour>
      <point x="2359" y="-22" type="curve" smooth="yes"/>
      <point x="2555" y="-22"/>
      <point x="2686" y="102"/>
      <point x="2686" y="287" type="curve" smooth="yes"/>
      <point x="2686" y="470"/>
      <point x="2555" y="592"/>
      <point x="2359" y="592" type="curve" smooth="yes"/>
      <point x="2164" y="592"/>
      <point x="2034" y="470"/>
      <point x="2034" y="287" type="curve" smooth="yes"/>
      <point x="2034" y="102"/>
      <point x="2164" y="-22"/>
    </contour>
    <component base="percent"/>
  </outline>
</glyph>
<glyph name="guilsinglright" format="1">
  <advance width="931"/>
  <unicode hex="203A"/>
  <outline>
    <contour>
      <point x="209" y="101" type="line"/>
      <point x="461" y="101" type="line"/>
      <point x="796" y="568" type="line"/>
      <point x="461" y="1023" type="line"/>
      <point x="209" y="1023" type="line"/>
      <point x="448" y="565" type="line"/>
    </contour>
  </outline>
</glyph>
<glyph name="radical" format="1">
  <advance width="1400"/>
  <unicode hex="221A"/>
  <outline>
    <contour>
      <point x="505" y="0" type="line"/>
      <point x="758" y="0" type="line"/>
      <point x="1340" y="1277" type="line"/>
      <point x="1175" y="1277" type="line"/>
      <point x="679" y="208" type="line"/>
      <point x="566" y="505" type="line"/>
      <point x="171" y="505" type="line"/>
      <point x="171" y="382" type="line"/>
      <point x="337" y="382" type="line"/>
    </contour>
  </outline>
</glyph>
<glyph name="integral" format="1">
  <advance width="1046"/>
  <unicode hex="222B"/>
  <outline>
    <contour>
      <point x="290" y="-275" type="curve" smooth="yes"/>
      <point x="597" y="-275"/>
      <point x="661" y="-3"/>
      <point x="661" y="292" type="curve" smooth="yes"/>
      <point x="661" y="502"/>
      <point x="629" y="723"/>
      <point x="629" y="866" type="curve" smooth="yes"/>
      <point x="629" y="1035"/>
      <point x="633" y="1084"/>
      <point x="676" y="1084" type="curve" smooth="yes"/>
      <point x="710" y="1084"/>
      <point x="719" y="1032"/>
      <point x="719" y="928" type="curve"/>
      <point x="916" y="928"/>
      <point x="962" y="995"/>
      <point x="962" y="1048" type="curve" smooth="yes"/>
      <point x="962" y="1114"/>
      <point x="877" y="1174"/>
      <point x="714" y="1174" type="curve" smooth="yes"/>
      <point x="403" y="1174"/>
      <point x="335" y="934"/>
      <point x="335" y="656" type="curve" smooth="yes"/>
      <point x="335" y="441"/>
      <point x="375" y="203"/>
      <point x="375" y="34" type="curve" smooth="yes"/>
      <point x="375" y="-136"/>
      <point x="360" y="-185"/>
      <point x="329" y="-185" type="curve" smooth="yes"/>
      <point x="290" y="-185"/>
      <point x="279" y="-147"/>
      <point x="279" y="-22" type="curve"/>
      <point x="81" y="-22"/>
      <point x="36" y="-87"/>
      <point x="36" y="-138" type="curve" smooth="yes"/>
      <point x="36" y="-203"/>
      <point x="112" y="-275"/>
    </contour>
  </outline>
</glyph>
<glyph name="approxequal" format="1">
  <advance width="1249"/>
  <unicode hex="2248"/>
  <outline>
    <contour>
      <point x="182" y="258.355" type="line"/>
      <point x="229.781" y="310.687"/>
      <point x="325.529" y="366"/>
      <point x="409" y="366" type="curve" smooth="yes"/>
      <point x="473.407" y="366"/>
      <point x="523.141" y="352.121"/>
      <point x="610" y="314.394" type="curve" smooth="yes"/>
      <point x="746.585" y="256.341"/>
      <point x="784.797" y="247"/>
      <point x="857" y="247" type="curve" smooth="yes"/>
      <point x="953.237" y="247"/>
      <point x="1022.3" y="276.862"/>
      <point x="1105" y="369.735" type="curve"/>
      <point x="1105" y="582.32" type="line"/>
      <point x="1056.33" y="531.37"/>
      <point x="962.82" y="474"/>
      <point x="878" y="474" type="curve" smooth="yes"/>
      <point x="814.313" y="474"/>
      <point x="763.661" y="488.965"/>
      <point x="677" y="526.606" type="curve" smooth="yes"/>
      <point x="540.718" y="584.531"/>
      <point x="502.607" y="593"/>
      <point x="429" y="593" type="curve" smooth="yes"/>
      <point x="333.834" y="593"/>
      <point x="265.815" y="563.139"/>
      <point x="182" y="471.705" type="curve"/>
    </contour>
    <contour>
      <point x="182" y="640.355" type="line"/>
      <point x="229.781" y="692.687"/>
      <point x="325.529" y="748"/>
      <point x="409" y="748" type="curve" smooth="yes"/>
      <point x="473.407" y="748"/>
      <point x="523.141" y="734.121"/>
      <point x="610" y="696.394" type="curve" smooth="yes"/>
      <point x="746.585" y="638.341"/>
      <point x="784.797" y="629"/>
      <point x="857" y="629" type="curve" smooth="yes"/>
      <point x="953.237" y="629"/>
      <point x="1022.3" y="658.862"/>
      <point x="1105" y="751.735" type="curve"/>
      <point x="1105" y="964.32" type="line"/>
      <point x="1056.33" y="913.37"/>
      <point x="962.82" y="856"/>
      <point x="878" y="856" type="curve" smooth="yes"/>
      <point x="814.313" y="856"/>
      <point x="763.661" y="870.965"/>
      <point x="677" y="908.606" type="curve" smooth="yes"/>
      <point x="540.718" y="966.531"/>
      <point x="502.607" y="975"/>
      <point x="429" y="975" type="curve" smooth="yes"/>
      <point x="333.834" y="975"/>
      <point x="265.815" y="945.139"/>
      <point x="182" y="853.705" type="curve"/>
    </contour>
  </outline>
</glyph>
<glyph name="lessequal" format="1">
  <advance width="1099"/>
  <unicode hex="2264"/>
  <outline>
    <contour>
      <point x="979" y="279" type="line"/>
      <point x="979" y="511" type="line"/>
      <point x="397" y="731" type="line"/>
      <point x="979" y="958" type="line"/>
      <point x="979" y="1187" type="line"/>
      <point x="100" y="791" type="line"/>
      <point x="100" y="673" type="line"/>
    </contour>
    <contour>
      <point x="100" y="0" type="line"/>
      <point x="979" y="0" type="line"/>
      <point x="979" y="212" type="line"/>
      <point x="100" y="212" type="line"/>
    </contour>
  </outline>
</glyph>
<glyph name="lozenge" format="1">
  <advance width="1136"/>
  <unicode hex="25CA"/>
  <outline>
    <contour>
      <point x="521" y="0" type="line"/>
      <point x="615" y="0" type="line"/>
      <point x="1094" y="630" type="line"/>
      <point x="615" y="1262" type="line"/>
      <point x="521" y="1262" type="line"/>
      <point x="42" y="630" type="line"/>
    </contour>
    <contour>
      <point x="570" y="200" type="line"/>
      <point x="256" y="630" type="line"/>
      <point x="570" y="1054" type="line"/>
      <point x="880" y="630" type="line"/>
    </contour>
  </outline>
</glyph>
<glyph name="uniFB01" format="1">
  <advance width="1493"/>
  <unicode hex="FB01"/>
  <outline>
    <contour>
      <point x="101" y="0" type="line"/>
      <point x="815" y="0" type="line"/>
      <point x="815" y="210" type="line"/>
      <point x="615" y="210" type="line"/>
      <point x="615" y="594" type="line"/>
      <point x="1020" y="594" type="line"/>
      <point x="1020" y="210" type="line"/>
      <point x="901" y="210" type="line"/>
      <point x="901" y="0" type="line"/>
      <point x="1449" y="0" type="line"/>
      <point x="1449" y="210" type="line"/>
      <point x="1346" y="210" type="line"/>
      <point x="1346" y="804" type="line"/>
      <point x="615" y="804" type="line"/>
      <point x="615" y="905" type="line" smooth="yes"/>
      <point x="615" y="1088"/>
      <point x="722" y="1152"/>
      <point x="854" y="1152" type="curve" smooth="yes"/>
      <point x="991" y="1152"/>
      <point x="1029" y="1110"/>
      <point x="1029" y="1110" type="curve"/>
      <point x="1015" y="1084"/>
      <point x="1008" y="1058"/>
      <point x="1008" y="1034" type="curve" smooth="yes"/>
      <point x="1008" y="968"/>
      <point x="1062" y="917"/>
      <point x="1170" y="917" type="curve" smooth="yes"/>
      <point x="1296" y="917"/>
      <point x="1345" y="993"/>
      <point x="1345" y="1068" type="curve" smooth="yes"/>
      <point x="1345" y="1222"/>
      <point x="1122" y="1309"/>
      <point x="868" y="1309" type="curve" smooth="yes"/>
      <point x="658" y="1309"/>
      <point x="289" y="1258"/>
      <point x="289" y="858" type="curve" smooth="yes"/>
      <point x="289" y="804" type="line"/>
      <point x="101" y="804" type="line"/>
      <point x="101" y="594" type="line"/>
      <point x="289" y="594" type="line"/>
      <point x="289" y="210" type="line"/>
      <point x="101" y="210" type="line"/>
    </contour>
  </outline>
</glyph>
<glyph name="uniFB02" format="1">
  <advance width="1476"/>
  <unicode hex="FB02"/>
  <outline>
    <contour>
      <point x="66" y="0" type="line"/>
      <point x="781" y="0" type="line"/>
      <point x="781" y="210" type="line"/>
      <point x="580" y="210" type="line"/>
      <point x="580" y="594" type="line"/>
      <point x="781" y="594" type="line"/>
      <point x="781" y="804" type="line"/>
      <point x="580" y="804" type="line"/>
      <point x="580" y="964" type="line" smooth="yes"/>
      <point x="580" y="1078"/>
      <point x="683" y="1131"/>
      <point x="833" y="1131" type="curve" smooth="yes"/>
      <point x="898" y="1131"/>
      <point x="957" y="1127"/>
      <point x="957" y="1036" type="curve" smooth="yes"/>
      <point x="956" y="211" type="line" smooth="yes"/>
      <point x="956" y="101"/>
      <point x="990" y="0"/>
      <point x="1146" y="0" type="curve" smooth="yes"/>
      <point x="1416" y="0" type="line"/>
      <point x="1416" y="211" type="line"/>
      <point x="1282" y="211" type="line"/>
      <point x="1283" y="1132" type="line" smooth="yes"/>
      <point x="1283" y="1279"/>
      <point x="1077" y="1351"/>
      <point x="849" y="1351" type="curve" smooth="yes"/>
      <point x="568" y="1351"/>
      <point x="254" y="1271"/>
      <point x="254" y="922" type="curve" smooth="yes"/>
      <point x="254" y="804" type="line"/>
      <point x="66" y="804" type="line"/>
      <point x="66" y="594" type="line"/>
      <point x="254" y="594" type="line"/>
      <point x="254" y="210" type="line"/>
      <point x="66" y="210" type="line"/>
    </contour>
  </outline>
</glyph>
<glyph name="caron.alt" format="1">
  <advance width="600"/>
  <outline>
    <contour>
      <point x="115" y="630" type="line"/>
      <point x="365" y="630"/>
      <point x="472" y="716"/>
      <point x="472" y="877" type="curve" smooth="yes"/>
      <point x="472" y="1174" type="line"/>
      <point x="115" y="1174" type="line"/>
      <point x="115" y="941" type="line"/>
      <point x="235" y="941" type="line"/>
      <point x="235" y="841"/>
      <point x="222" y="798"/>
      <point x="115" y="798" type="curve"/>
    </contour>
    <contour>
      <point x="0" y="804" type="move" name="_caron.alt"/>
    </contour>
  </outline>
</glyph>
<glyph name="fj" format="1">
  <advance width="1482"/>
  <outline>
    <contour>
      <point x="835" y="-451" type="line"/>
      <point x="945" y="-451" type="line" smooth="yes"/>
      <point x="1481" y="-451"/>
      <point x="1410" y="-80"/>
      <point x="1410" y="125" type="curve" smooth="yes"/>
      <point x="1410" y="804" type="line"/>
      <point x="615" y="804" type="line"/>
      <point x="615" y="905" type="line" smooth="yes"/>
      <point x="615" y="1088"/>
      <point x="722" y="1152"/>
      <point x="854" y="1152" type="curve" smooth="yes"/>
      <point x="991" y="1152"/>
      <point x="1029" y="1110"/>
      <point x="1029" y="1110" type="curve"/>
      <point x="1015" y="1084"/>
      <point x="1008" y="1058"/>
      <point x="1008" y="1034" type="curve" smooth="yes"/>
      <point x="1008" y="968"/>
      <point x="1062" y="917"/>
      <point x="1170" y="917" type="curve" smooth="yes"/>
      <point x="1296" y="917"/>
      <point x="1345" y="993"/>
      <point x="1345" y="1068" type="curve" smooth="yes"/>
      <point x="1345" y="1222"/>
      <point x="1122" y="1309"/>
      <point x="868" y="1309" type="curve" smooth="yes"/>
      <point x="658" y="1309"/>
      <point x="289" y="1258"/>
      <point x="289" y="858" type="curve" smooth="yes"/>
      <point x="289" y="804" type="line"/>
      <point x="101" y="804" type="line"/>
      <point x="101" y="594" type="line"/>
      <point x="289" y="594" type="line"/>
      <point x="289" y="210" type="line"/>
      <point x="101" y="210" type="line"/>
      <point x="101" y="0" type="line"/>
      <point x="815" y="0" type="line"/>
      <point x="815" y="210" type="line"/>
      <point x="615" y="210" type="line"/>
      <point x="615" y="594" type="line"/>
      <point x="1072" y="594" type="line"/>
      <point x="1072" y="-27" type="line" smooth="yes"/>
      <point x="1072" y="-193"/>
      <point x="1013" y="-206"/>
      <point x="900" y="-206" type="curve" smooth="yes"/>
      <point x="835" y="-206" type="line"/>
    </contour>
  </outline>
</glyph>
<glyph name="uniFB04" format="1">
  <advance width="2396"/>
  <outline>
    <contour>
      <point x="130" y="210" type="line"/>
      <point x="130" y="0" type="line"/>
      <point x="856" y="0" type="line"/>
      <point x="856" y="210" type="line"/>
      <point x="644" y="210" type="line"/>
      <point x="644" y="594" type="line"/>
      <point x="837" y="594" type="line"/>
      <point x="837" y="804" type="line"/>
      <point x="644" y="804" type="line"/>
      <point x="644" y="895" type="line" smooth="yes"/>
      <point x="644" y="1002"/>
      <point x="749" y="1096"/>
      <point x="906" y="1096" type="curve" smooth="yes"/>
      <point x="991" y="1096"/>
      <point x="1090" y="1069"/>
      <point x="1197" y="1003" type="curve"/>
      <point x="1432" y="1079" type="line"/>
      <point x="1219" y="1233"/>
      <point x="1004" y="1303"/>
      <point x="820" y="1303" type="curve" smooth="yes"/>
      <point x="529" y="1303"/>
      <point x="318" y="1126"/>
      <point x="318" y="826" type="curve" smooth="yes"/>
      <point x="318" y="804" type="line"/>
      <point x="130" y="804" type="line"/>
      <point x="130" y="594" type="line"/>
      <point x="318" y="594" type="line"/>
      <point x="318" y="210" type="line"/>
    </contour>
    <component base="uniFB02" xOffset="920"/>
  </outline>
</glyph>
